<svg xmlns="http://www.w3.org/2000/svg" viewBox="0 0 3000 2500" width="3000" height="2500"><g transform="translate(617.0 1023.0) rotate(0.0 40.5 40.5) scale(1.0270064663370102 1.0270064663370102)"><svg width="78.87" height="78.87" viewBox="0 0 78.87 78.87"><path d="M73.87 78.869a4.984 4.984 0 0 1-3.536-1.465L1.464 8.535a5 5 0 1 1 7.072-7.07l68.87 68.869a4.998 4.998 0 0 1-3.536 8.535Z" style="fill:#3c191e"/></svg></g><g transform="translate(466.0 251.0) rotate(0.0 494.0 390.0) scale(0.9997743424308076 0.9990636979958526)"><svg width="988.223" height="780.731" viewBox="0 0 988.223 780.731"><rect fill="#fff" height="770.731" rx="40" width="978.225" x="5" y="5"/><path d="M943.223 780.731H45c-24.813 0-45-20.187-45-45V45C0 20.187 20.187 0 45 0h898.223c24.813 0 45 20.187 45 45v690.731c0 24.813-20.187 45-45 45zM45 10c-19.299 0-35 15.701-35 35v690.731c0 19.299 15.701 35 35 35h898.223c19.299 0 35-15.701 35-35V45c0-19.299-15.701-35-35-35z" fill="#fae2ce"/><path d="M141.679 507.373h100.048v154.913H141.679z" fill="#fae2ce"/><path d="M296.576 390.871h100.048v271.415H296.576z" fill="#d2c1f0"/><path d="M451.474 463.488h100.048v198.798H451.474z" fill="#fae2ce"/><path d="M606.371 296.996h100.048v365.29H606.371zm154.898-75.895h100.048v441.185H761.269z" fill="#d2c1f0"/><path d="M134.257 472.505a9.966 9.966 0 0 1-7.071-2.929c-3.905-3.905-3.905-10.237 0-14.142l218.875-218.875c3.905-3.905 10.237-3.905 14.143 0l113.54 113.54 188.757-188.757a9.996 9.996 0 0 1 4.198-2.507l150.647-48.571c5.259-1.696 10.892 1.193 12.586 6.449 1.695 5.257-1.192 10.892-6.449 12.586l-148.55 47.895-194.118 194.118c-3.905 3.905-10.237 3.905-14.143 0l-113.54-113.54-211.804 211.803a9.968 9.968 0 0 1-7.071 2.929z" fill="#e51b26"/><circle cx="353.13" cy="243.632" fill="#fff" r="32.215"/><path d="M353.131 285.847c-23.277 0-42.215-18.938-42.215-42.215s18.938-42.215 42.215-42.215 42.215 18.938 42.215 42.215-18.938 42.215-42.215 42.215zm0-64.43c-12.25 0-22.215 9.965-22.215 22.215s9.965 22.215 22.215 22.215 22.215-9.965 22.215-22.215-9.965-22.215-22.215-22.215zm120.612 116.499c-14.518 0-26.329 11.812-26.329 26.329s11.812 26.33 26.329 26.33 26.329-11.812 26.329-26.33-11.812-26.329-26.329-26.329z" fill="#e51b26"/><circle cx="669.924" cy="166.834" fill="#fff" r="32.215"/><path d="M669.924 209.049c-23.277 0-42.215-18.938-42.215-42.215s18.938-42.215 42.215-42.215 42.215 18.938 42.215 42.215-18.938 42.215-42.215 42.215zm0-64.43c-12.25 0-22.215 9.965-22.215 22.215s9.965 22.215 22.215 22.215 22.215-9.965 22.215-22.215-9.965-22.215-22.215-22.215z" fill="#e51b26"/><circle cx="820.413" cy="119.782" fill="#fff" r="32.215"/><path d="M820.413 161.997c-23.277 0-42.215-18.938-42.215-42.215s18.938-42.215 42.215-42.215 42.215 18.938 42.215 42.215-18.938 42.215-42.215 42.215zm0-64.43c-12.25 0-22.215 9.965-22.215 22.215s9.965 22.215 22.215 22.215 22.215-9.966 22.215-22.215-9.966-22.215-22.215-22.215z" fill="#e51b26"/></svg></g><g transform="translate(965.0 691.0) rotate(0.0 631.0 772.5) scale(0.9998621426205896 0.9994365635942455)"><svg width="1262.174" height="1545.871" viewBox="0 0 1262.174 1545.871"><path d="M631.088 5C361.092 5 142.216 223.875 142.216 493.872v885.521h977.744V493.872C1119.96 223.876 901.085 5 631.088 5z" fill="#fff"/><path d="M1262.174 1545.871H0c0-83.703 61.774-152.962 142.214-164.713v-86.964h977.747v86.964c95.395 6.707 142.214 122.861 142.214 164.712z" fill="#3c191e"/><path d="m651.04 1384.393-508.854-3a5 5 0 0 1-4.97-5V493.872c0-66.67 13.059-131.349 38.813-192.239 24.875-58.811 60.484-111.626 105.839-156.981 45.355-45.354 98.171-80.964 156.981-105.838C499.738 13.059 564.417 0 631.087 0c66.671 0 131.349 13.059 192.239 38.813 58.811 24.875 111.627 60.484 156.981 105.838 45.354 45.355 80.964 98.171 105.838 156.981 25.754 60.89 38.813 125.569 38.813 192.239v882.521a5 5 0 0 1-4.968 5l-468.951 3zm468.919-8h.01zm-972.744-4.971 503.822 2.971 463.922-2.968V493.872C1114.959 227.064 897.895 10 631.088 10S147.215 227.064 147.215 493.872v877.551z" fill="#d2c1f0"/></svg></g><g transform="translate(685.0 775.0) rotate(0.0 790.0 498.5) scale(0.9997627145455984 0.999062064100303)"><svg width="1580.375" height="997.936" viewBox="0 0 1580.375 997.936"><g><g><path d="M318.932 927.216h-91.463a5 5 0 1 1 0-10h89.392l262.932-262.931a5 5 0 0 1 7.07 7.071L322.467 925.752a4.998 4.998 0 0 1-3.535 1.464Zm1256.443-318.312a4.983 4.983 0 0 1-3.535-1.464l-244.974-244.973h-213.784a5 5 0 1 1 0-10h215.855a5 5 0 0 1 3.535 1.464l246.438 246.437a5 5 0 0 1-3.535 8.535ZM932.577 354.08a5 5 0 0 1-5-5V139.593c0-1.326.526-2.598 1.465-3.536L1063.634 1.464a5 5 0 1 1 7.07 7.071L937.576 141.663v207.416a5 5 0 0 1-5 5Zm-246.205 92.97H125.889a4.997 4.997 0 0 1-3.535-1.465L1.465 324.696a5 5 0 1 1 7.07-7.071L127.96 437.05h558.412a5 5 0 1 1 0 10Zm616.301 550.886h-92.895a5 5 0 0 1-3.535-1.464L952.148 742.378a5 5 0 1 1 7.07-7.071l252.631 252.63h90.823a5 5 0 1 1 0 10Z" style="fill:#3c191e"/></g><g><path d="M956.181 717.245c-11.257 0-20.415 9.158-20.415 20.414s9.158 20.416 20.415 20.416 20.415-9.159 20.415-20.416-9.158-20.414-20.415-20.414Zm-370.049-80.096c-11.257 0-20.415 9.158-20.415 20.414s9.158 20.416 20.415 20.416 20.415-9.159 20.415-20.416-9.158-20.414-20.415-20.414Zm106.311-216.768c-11.257 0-20.415 9.158-20.415 20.414s9.158 20.416 20.415 20.416 20.415-9.159 20.415-20.416-9.158-20.414-20.415-20.414Zm240.625-93.721c-11.257 0-20.415 9.158-20.415 20.414s9.158 20.416 20.415 20.416 20.415-9.159 20.415-20.416-9.158-20.414-20.415-20.414Zm178.971 10.739c-11.257 0-20.415 9.158-20.415 20.414s9.158 20.416 20.415 20.416 20.415-9.159 20.415-20.416-9.158-20.414-20.415-20.414Z" style="fill:#3c191e"/></g></g></svg></g><g transform="translate(1502.0 1551.0) rotate(0.0 94.0 276.0) scale(0.9427055649714682 0.9490863324690688)"><svg width="199.426" height="581.612" viewBox="0 0 199.426 581.612"><g><path d="M99.713 581.611c-9.665 0-17.5-7.835-17.5-17.5V52.414c0-9.665 7.835-17.5 17.5-17.5s17.5 7.835 17.5 17.5v511.697c0 9.665-7.835 17.5-17.5 17.5Z" style="fill:#3c191e"/><ellipse cx="99.713" cy="44.668" rx="99.713" ry="44.668" style="fill:#3c191e"/></g></svg></g><g transform="translate(1183.0 1051.0) rotate(0.0 413.5 300.0) scale(0.9988694778340355 0.9983959105703503)"><svg width="827.936" height="600.964" viewBox="0 0 827.936 600.964"><path d="M818.812 333.164a178.663 178.663 0 0 1-10.03 24.072 175.745 175.745 0 0 1-5.976 10.927l-.697 1.172c-.011 0-.011.011-.011.011-17.061 28.327-41.228 51.163-68.309 66.292a171.173 171.173 0 0 1-20.778 9.872c-.686.264-1.383.528-2.069.792l-1.795.665c-.348.127-.697.253-1.056.38-.148.053-.296.106-.454.159-13.071 4.635-26.479 7.486-39.835 8.351-13.303.866-26.532-.243-39.307-3.526-12.817 68.425-142.235 124.276-271.821 100.795-64.487 51.385-178.617 68.89-244.244 14.665a71.98 71.98 0 0 1-2.766-2.354 62.142 62.142 0 0 1-2.333-2.09 111.814 111.814 0 0 1-3.421-3.262 138.489 138.489 0 0 1-2.143-2.186c-24.22-25.286-39.592-62.671-39.592-114.668C-50.253 365.809-18.791 143.62 227.354 41.738c156.097-64.624 326.838-49.886 446.32 14.58 35.337 19.057 66.176 42.463 90.839 69.46.728.802 1.457 1.594 2.175 2.407.084.085.158.169.243.264a302.415 302.415 0 0 1 4.17 4.793 264.19 264.19 0 0 1 3.104 3.716c8.298 10.104 15.752 20.661 22.298 31.631a237.476 237.476 0 0 1 12.321 23.586c4.994 11.043 8.932 21.95 11.909 32.687.053.201.106.401.158.612 4.191 15.277 6.419 30.206 6.926 44.628.802 22.372-2.502 43.551-9.006 63.062z" fill="#e51b26"/><path d="M628.496 457.329c-.413 0-.832-.052-1.25-.159-31.346-8.07-57.923-28.361-76.857-58.678a5 5 0 0 1 8.481-5.298c17.549 28.099 42.056 46.873 70.869 54.291a5.001 5.001 0 0 1-1.243 9.844z" fill="#fff"/><path d="M272.073 500.22c-9.897 0-17.948 8.051-17.948 17.948s8.052 17.949 17.948 17.949 17.948-8.052 17.948-17.949-8.052-17.948-17.948-17.948zm84.463-76.016c-9.897 0-17.948 8.051-17.948 17.948s8.052 17.949 17.948 17.949 17.948-8.052 17.948-17.949-8.052-17.948-17.948-17.948zm-210.1 76.016c-9.897 0-17.948 8.051-17.948 17.948s8.052 17.949 17.948 17.949 17.948-8.052 17.948-17.949-8.052-17.948-17.948-17.948zm0-76.016c-9.897 0-17.948 8.051-17.948 17.948s8.052 17.949 17.948 17.949 17.948-8.052 17.948-17.949-8.052-17.948-17.948-17.948z" fill="#fbf8f2"/><path d="M272.163 523.354H147.357a5 5 0 0 1 0-10h124.806a5 5 0 0 1 0 10zm84.463-76.016H147.358a5 5 0 0 1 0-10h209.268a5 5 0 0 1 0 10zm21.115-97.892H211.193a5 5 0 0 1 0-10h164.476l114.003-114.003V93.39a5 5 0 0 1 10 0v134.124a5 5 0 0 1-1.464 3.535L381.276 347.981a4.998 4.998 0 0 1-3.536 1.464zm243.457 11.427a5 5 0 0 1-3.536-8.535l50.396-50.396v-84.215l-49.209-49.209a5 5 0 0 1 0-7.071 5 5 0 0 1 7.071 0l50.674 50.674a4.998 4.998 0 0 1 1.464 3.536v88.357a5 5 0 0 1-1.464 3.535l-51.86 51.86a4.988 4.988 0 0 1-3.536 1.465zm77.096 0a5 5 0 0 1-3.536-8.536l50.396-50.396v-84.215l-49.209-49.209a5 5 0 0 1 0-7.071 5 5 0 0 1 7.071 0l50.674 50.674a4.998 4.998 0 0 1 1.464 3.536v88.357a5.004 5.004 0 0 1-1.464 3.536l-51.86 51.86a4.985 4.985 0 0 1-3.536 1.464z" fill="#fff"/><path d="M492.475 394.415a4.987 4.987 0 0 1-3.536-1.464l-76.843-76.843a5 5 0 0 1 0-7.071 5 5 0 0 1 7.071 0l76.843 76.843a5 5 0 0 1-3.536 8.535zm49.808-57.502a4.984 4.984 0 0 1-3.536-1.465l-72.996-72.996a5 5 0 1 1 7.071-7.071l72.996 72.996a5 5 0 0 1-3.536 8.535z" fill="#fff"/><path d="M347.438 87.573c-9.897 0-17.948 8.051-17.948 17.948s8.052 17.949 17.948 17.949 17.948-8.052 17.948-17.949-8.052-17.948-17.948-17.948zm-125.638 0c-9.897 0-17.948 8.051-17.948 17.948s8.052 17.949 17.948 17.949 17.948-8.052 17.948-17.949-8.052-17.948-17.948-17.948z" fill="#fbf8f2"/><path d="M347.528 110.707H222.722a5 5 0 0 1 0-10h124.806a5 5 0 0 1 0 10zm-3.12 152.524H232.309a5 5 0 0 1 0-10h110.028l89.395-89.394a5.001 5.001 0 0 1 7.071 7.071l-90.859 90.859a4.998 4.998 0 0 1-3.536 1.464zM54.2 310.609a5 5 0 0 1-3.536-8.535l82.446-82.446a5.001 5.001 0 0 1 7.071 7.071l-82.446 82.446a4.985 4.985 0 0 1-3.536 1.464z" fill="#fff"/><g fill="#fbf8f2"><path d="M138.066 205.215c-9.897 0-17.948 8.051-17.948 17.948s8.052 17.949 17.948 17.949 17.948-8.052 17.948-17.949-8.052-17.948-17.948-17.948zM52.03 290.517c-9.897 0-17.948 8.051-17.948 17.948s8.052 17.949 17.948 17.949 17.948-8.052 17.948-17.949-8.052-17.948-17.948-17.948zm383.237-142.878c-9.897 0-17.948 8.051-17.948 17.948s8.052 17.949 17.948 17.949 17.948-8.052 17.948-17.949-8.052-17.948-17.948-17.948zM211.192 326.498c-9.897 0-17.948 8.051-17.948 17.948s8.052 17.949 17.948 17.949 17.948-8.052 17.948-17.949-8.052-17.948-17.948-17.948zM496.616 75.164c-9.897 0-17.948 8.051-17.948 17.948s8.052 17.949 17.948 17.949 17.948-8.052 17.948-17.949-8.052-17.948-17.948-17.948zM232.308 240.283c-9.897 0-17.948 8.051-17.948 17.948s8.052 17.949 17.948 17.949 17.948-8.052 17.948-17.949-8.052-17.948-17.948-17.948zm316.826 79.249c-9.897 0-17.948 8.051-17.948 17.948s8.052 17.949 17.948 17.949 17.948-8.052 17.948-17.949-8.052-17.948-17.948-17.948zm-54.461 51.935c-9.897 0-17.948 8.051-17.948 17.948s8.052 17.949 17.948 17.949 17.948-8.052 17.948-17.949-8.052-17.948-17.948-17.948zM624.524 147.72c-9.897 0-17.948 8.051-17.948 17.948s8.052 17.949 17.948 17.949 17.948-8.052 17.948-17.949-8.052-17.948-17.948-17.948zm75.186 0c-9.897 0-17.948 8.051-17.948 17.948s8.052 17.949 17.948 17.949 17.948-8.052 17.948-17.949-8.052-17.948-17.948-17.948zm-81.69 193.02c-9.897 0-17.948 8.051-17.948 17.948s8.052 17.949 17.948 17.949 17.948-8.052 17.948-17.949-8.052-17.948-17.948-17.948zm76.194 2.999c-9.897 0-17.948 8.051-17.948 17.948s8.052 17.949 17.948 17.949 17.948-8.052 17.948-17.949-8.052-17.948-17.948-17.948z"/></g></svg></g><g transform="translate(1746.0 484.0) rotate(0.0 469.0 180.5) scale(0.9993149685237092 0.9996372507483435)"><svg width="938.643" height="361.131" viewBox="0 0 938.643 361.131"><rect fill="#fff" height="351.131" rx="40" width="928.643" x="5" y="5"/><path d="M893.642 361.13H45c-24.813 0-45-20.187-45-45V45C0 20.187 20.187 0 45 0h848.643c24.813 0 45 20.187 45 45v271.13c0 24.813-20.187 45-45 45zM45 10c-19.299 0-35 15.701-35 35v271.13c0 19.299 15.701 35 35 35h848.643c19.299 0 35-15.701 35-35V45c0-19.299-15.701-35-35-35z" fill="#d2c1f0"/><path d="M850.589 155.201c0 .518-.01 1.045-.019 1.562-.781 39.069-30.916 70.923-69.253 74.438a76.397 76.397 0 0 1-7.05.322h-631c-21.073 0-40.153-8.544-53.961-22.352-13.817-13.808-22.362-32.888-22.362-53.971 0-42.145 34.177-76.323 76.323-76.323h630.999c21.073 0 40.153 8.544 53.971 22.352 10.409 10.419 17.821 23.817 20.838 38.816a73.069 73.069 0 0 1 1.367 10.507c.098 1.533.146 3.086.146 4.648z" fill="#fae2ce"/><path d="M312.216 327.244a15.058 15.058 0 0 1-10.68-4.424L142.792 164.076c-5.898-5.898-5.898-15.462 0-21.36s15.461-5.899 21.36 0L322.896 301.46c5.898 5.898 5.898 15.462 0 21.36a15.056 15.056 0 0 1-10.68 4.424z" fill="#e51b26"/><circle cx="153.471" cy="153.396" fill="#e51b26" r="102.489"/><circle cx="153.471" cy="153.396" fill="#fff" r="78.131"/></svg></g><g transform="translate(314.0 1326.0) rotate(0.0 298.5 335.5) scale(0.9997303909665903 0.9988002488813734)"><svg width="597.161" height="671.806" viewBox="0 0 597.161 671.806"><path d="M0 0h597.161v671.806H0z" fill="#fae2ce"/><path d="M42.096 42.096h512.976v463.823H42.096z" fill="#fff"/><path d="M555.072 510.919H42.096a5 5 0 0 1-5-5V42.096a5 5 0 0 1 5-5h512.976a5 5 0 0 1 5 5v463.823a5 5 0 0 1-5 5zm-507.976-10h502.976V47.096H47.096z" fill="#fae2ce"/><circle cx="393.886" cy="179.441" fill="#e51b26" r="49.382"/><path d="M555.072 352.981v152.938H42.096V399.272L249.91 191.458 397.761 339.31l71.82-71.82z" fill="#d2c1f0"/><path d="M555.072 510.919H42.096a5 5 0 0 1-5-5V42.096a5 5 0 0 1 5-5h512.976a5 5 0 0 1 5 5v463.823a5 5 0 0 1-5 5zm-507.976-10h502.976V47.096H47.096z" fill="#fae2ce"/></svg></g><g transform="translate(2257.0 1013.0) rotate(0.0 263.0 406.5) scale(0.9991167504012611 0.997923141506238)"><svg width="526.465" height="814.692" viewBox="0 0 526.465 814.692"><path d="m407.812 10 108.652 108.652v686.04H10V10h397.813m4.142-10H0v814.692h526.465V114.51z" fill="#fae2ce"/><path d="M526.465 114.51v54.267H0V0h411.955z" fill="#d2c1f0"/><g fill="#fae2ce"><path d="M103.325 403.733h281.752V217.928H103.325v48.181L51.43 310.831l51.895 44.721zm97.848 167.644h259.202v-19.733l21.116-19.733-21.116-19.733v-19.733H201.173v78.933zm0 137.252h259.202v-19.733l21.116-19.733-21.116-19.733v-19.733H201.173v78.933z"/></g><circle cx="143.054" cy="84.386" fill="#fff" r="39.706"/><path d="M66.491 119.515a4.987 4.987 0 0 1-3.536-1.464L32.826 87.922a5.001 5.001 0 0 1 0-7.071l30.129-30.129a5 5 0 1 1 7.071 7.071L43.433 84.386l26.593 26.593a5.001 5.001 0 0 1-3.536 8.535zm459.974-5.005h-114.51V0z" fill="#3c191e"/></svg></g><g transform="translate(1985.0 1666.0) rotate(0.0 267.5 179.0) scale(0.9982572480939818 0.9973283856930736)"><svg width="535.934" height="358.959" viewBox="0 0 535.934 358.959"><path d="M0 39.889h496.045V358.96H0z" fill="#d2c1f0"/><path d="M248.027 228.754a4.992 4.992 0 0 1-2.949-.962L3.711 51.542a5 5 0 1 1 5.898-8.076l238.594 174.226L506.042 51.478a5 5 0 1 1 5.418 8.406L250.735 227.957a4.99 4.99 0 0 1-2.708.797z" fill="#fff"/><circle cx="496.045" cy="39.889" fill="#e51b26" r="39.889"/></svg></g><g transform="translate(190.0 2236.0) rotate(0.0 1301.0 10.0) scale(0.9473710271948643 1.0)"><svg width="2746.548" height="20" viewBox="0 0 2746.548 20"><path d="M2736.548 20H10C4.477 20 0 15.522 0 10S4.477 0 10 0h2726.548c5.522 0 10 4.478 10 10s-4.477 10-10 10z" fill="#fae2ce"/></svg></g></svg>