<svg xmlns="http://www.w3.org/2000/svg" viewBox="0 0 3000 3000" width="3000" height="3000"><g transform="translate(435.59999999999997 1278.0) rotate(0.0 442.80000000000007 632.3999999999999) scale(1.20143260256132 1.2000079696923982)"><svg width="737.12" height="1053.993" viewBox="0 0 737.12 1053.993"><linearGradient id="a" gradientUnits="userSpaceOnUse" x1="85.38" x2="342.899" y1="692.275" y2="733.273"><stop offset=".289" stop-color="#3658c1"/><stop offset="1" stop-color="#111"/></linearGradient><linearGradient id="b" gradientUnits="userSpaceOnUse" x1="373.576" x2="537.571" y1="664.906" y2="585.483"><stop offset="0" stop-color="#3658c1"/><stop offset="1" stop-color="#111"/></linearGradient><linearGradient id="c" gradientUnits="userSpaceOnUse" x1="720.809" x2="656.073" y1="254.881" y2="559.187"><stop offset=".421" stop-color="#3658c1"/><stop offset="1" stop-color="#111"/></linearGradient><g><path d="m96.954 290.495 34.979 46.499c-.853-1.134-1.832-1.982-2.938-2.512-23.129-11.099-66.644-9.805-85.052-34.274L8.965 253.709c18.407 24.469 61.923 23.175 85.052 34.274 1.105.53 2.084 1.378 2.937 2.512" fill="#3658c1"/><path d="M131.935 337.994a.998.998 0 0 1-.8-.399c-.764-1.015-1.629-1.759-2.571-2.212-8.008-3.843-18.535-6.19-29.679-8.676-20.421-4.554-43.566-9.716-55.74-25.898L8.165 254.31a1 1 0 0 1 1.598-1.202l.019.025c11.736 15.573 34.485 20.646 54.557 25.123 11.259 2.511 21.895 4.883 30.109 8.825 1.234.592 2.346 1.539 3.305 2.812l34.975 46.492.005.007a1 1 0 0 1-.798 1.602zM17.504 263.397l27.239 36.209c11.73 15.593 34.493 20.669 54.576 25.148 10.367 2.312 20.205 4.506 28.111 7.917l-31.276-41.575c-.764-1.015-1.629-1.759-2.571-2.212-8.008-3.843-18.535-6.19-29.679-8.676-15.988-3.565-33.645-7.502-46.4-16.811z" fill="#111"/><path d="m450.444 27.785 34.979 46.499c11.191 14.876 15.903 34.632 11.507 55.824-4.346 20.952-16.804 39.428-33.514 52.493l-34.979-46.499c16.71-13.065 29.169-31.541 33.514-52.493 4.396-21.192-.316-40.948-11.507-55.824" fill="#3658c1"/><g fill="#111"><path d="M463.417 183.601a.996.996 0 0 1-.799-.399l-34.979-46.499a1 1 0 0 1 .184-1.389c17.229-13.47 29.001-31.905 33.151-51.909 4.187-20.187.172-39.714-11.305-54.99l-.023-.03a1 1 0 0 1 1.598-1.202l34.979 46.499c11.845 15.746 15.996 35.857 11.687 56.628-4.245 20.466-16.276 39.316-33.877 53.078a.997.997 0 0 1-.616.213zm-33.593-47.32 33.777 44.9c16.793-13.412 28.267-31.585 32.352-51.277 4.19-20.2.167-39.74-11.328-55.02L459.323 41.25c5.42 12.914 6.719 27.565 3.608 42.562-4.183 20.166-15.925 38.764-33.107 52.469zM95.713 436.867l34.979 46.499c-8.795-2.926-17.136-6.683-21.634-12.662l-34.979-46.499c4.498 5.979 12.839 9.736 21.634 12.662"/><path d="M130.693 484.366c-.105 0-.212-.017-.316-.051-7.657-2.547-17.092-6.329-22.118-13.01L73.28 424.806a1 1 0 0 1 1.598-1.202c4.693 6.24 13.769 9.859 21.15 12.314a.995.995 0 0 1 .484.348l34.979 46.499a1 1 0 0 1-.798 1.601zm-50.006-53.041 29.17 38.777c4.057 5.393 11.386 8.828 18.067 11.247l-32.823-43.632c-4.639-1.554-9.895-3.563-14.414-6.392z"/></g><path d="m428.438 136.102 34.979 46.499c-23.045 22.345-26.215 52.228-11.411 71.907l-34.979-46.499c-14.804-19.679-11.635-49.562 11.411-71.907" fill="#3658c1"/><path d="M452.007 255.507a.998.998 0 0 1-.8-.399l-.018-.024-34.961-46.474c-7.471-9.931-10.553-22.608-8.678-35.696 1.954-13.637 8.937-26.615 20.193-37.529a1.003 1.003 0 0 1 1.496.117l34.979 46.499a1 1 0 0 1-.103 1.319c-10.936 10.604-17.715 23.183-19.605 36.377-1.799 12.557 1.147 24.707 8.297 34.21a1 1 0 0 1-.8 1.6zm-23.682-117.891c-10.461 10.435-16.953 22.715-18.796 35.582-1.799 12.557 1.147 24.707 8.297 34.21l27 35.891c-2.676-7.395-3.49-15.557-2.297-23.886 1.917-13.381 8.675-26.126 19.562-36.912z" fill="#111"/><path d="m332.587 723.825 34.979 46.499c-32.273-44.981-228.629-14.273-270.487-64.026-1.407-1.674-38.949-51.484-38.949-51.484a119.23 119.23 0 0 0 3.969 4.985c41.859 49.753 238.215 19.045 270.488 64.026" fill="url(#a)"/><path d="M367.567 771.323a.998.998 0 0 1-.8-.399l-.72-.957c-16.374-20.77-69.743-24.567-126.198-28.584-59.908-4.264-121.854-8.672-143.535-34.442-1.384-1.647-36.239-47.887-38.875-51.383l-.106-.14-.001-.003a1 1 0 0 1 1.597-1.203l.11.146a118.075 118.075 0 0 0 3.826 4.798c21.135 25.122 82.653 29.5 142.146 33.733 57.769 4.111 112.333 7.994 128.381 30.343l34.25 45.53c.254.322.499.648.736.978a1.001 1.001 0 0 1-.811 1.583zM68.974 667.531c11.225 14.878 27.958 37.036 28.871 38.123 21.135 25.122 82.654 29.5 142.146 33.733 49.866 3.549 97.343 6.927 119.722 22.16l-27.926-37.122-.013-.018c-15.494-21.595-69.61-25.446-126.905-29.523-53.936-3.838-109.527-7.796-135.895-27.353z" fill="#111"/><path d="m547.827 560.97 34.979 46.499c-11.431-14.44-29.096-24.013-50.515-25.378-43.651-2.781-86.224 29.62-95.091 72.37-4.396 21.195.318 40.954 11.509 55.83l-34.979-46.499c-11.191-14.876-15.905-34.635-11.509-55.83 8.867-42.75 51.44-75.151 95.091-72.37 21.418 1.364 39.084 10.937 50.515 25.378" fill="url(#b)"/><path d="M448.711 711.29a.998.998 0 0 1-.829-.438l-34.95-46.459c-11.846-15.748-15.997-35.861-11.688-56.634 8.95-43.15 52.087-75.971 96.133-73.165 20.949 1.334 39.145 10.481 51.235 25.755l.015.02 34.979 46.499a1 1 0 0 1-1.583 1.222c-11.734-14.824-29.418-23.703-49.794-25-43.108-2.746-85.292 29.363-94.048 71.575-4.187 20.188-.172 39.717 11.304 54.993l.025.033a1 1 0 0 1-.799 1.599zm43.376-174.864c-41.263 0-80.481 31.211-88.887 71.739-4.19 20.202-.167 39.744 11.329 55.026l25.301 33.633c-5.421-12.916-6.72-27.569-3.609-42.567 8.95-43.15 52.086-75.974 96.133-73.165 15.622.995 29.712 6.334 40.882 15.319l-26.202-34.83c-11.734-14.819-29.415-23.694-49.787-24.992a81.66 81.66 0 0 0-5.16-.163z" fill="#111"/><path d="m701.14 238.024 34.98 46.499-63.864 307.905-34.979-46.499z" fill="url(#c)"/><path d="M672.256 593.428a1 1 0 0 1-.799-.399l-34.979-46.499a1 1 0 0 1-.18-.804l63.864-307.905a1 1 0 0 1 1.779-.398l34.979 46.499a1 1 0 0 1 .18.804l-63.864 307.905a1 1 0 0 1-.98.797zm-33.909-47.739 33.378 44.37 63.323-305.297-33.378-44.37z" fill="#111"/><path d="m637.277 545.929 34.979 46.499c-13.753 20.075-35.918 30.537-56.802 29.207-11.897-.758-23.381-5.346-32.648-14.166l-34.979-46.499c9.267 8.82 20.751 13.408 32.648 14.166 20.884 1.33 43.049-9.132 56.802-29.207" fill="#111"/><path d="M619.08 622.749c-1.23 0-2.458-.039-3.689-.117-12.692-.809-24.198-5.802-33.274-14.439a.995.995 0 0 1-.11-.124l-34.979-46.499a1 1 0 0 1 1.488-1.326c8.732 8.311 19.805 13.114 32.022 13.893 21.397 1.364 42.82-9.662 55.913-28.774a.998.998 0 0 1 .803-.434c.321-.037.627.141.821.398l34.979 46.499a1 1 0 0 1 .026 1.166c-12.736 18.593-33.16 29.756-54 29.757zm-35.525-15.948c8.723 8.275 19.773 13.059 31.962 13.835 21.171 1.349 42.378-9.436 55.505-28.184l-33.717-44.82c-13.552 18.989-35.225 29.889-56.895 28.502-9.863-.628-19.01-3.784-26.856-9.213z" fill="#111"/><path d="m541.884 1005.841 34.979 46.499c-24.466 1.002-47.786.865-69.327-.507-59.029-3.761-104.56-16.795-122.772-41.004l-34.979-46.499c18.212 24.209 63.743 37.244 122.772 41.004 21.541 1.372 44.861 1.51 69.327.507" fill="#3658c1"/><path d="M545.865 1053.992c-13.405 0-26.242-.388-38.392-1.162-63.466-4.043-106.174-18.36-123.508-41.401l-34.979-46.499a1 1 0 0 1 1.598-1.202c16.971 22.561 59.171 36.603 122.036 40.607 21.186 1.35 44.477 1.521 69.222.506.322-.011.643.135.84.398l34.979 46.499a.998.998 0 0 1-.759 1.6 758.246 758.246 0 0 1-31.037.654zm-186.47-78.551 26.169 34.787c16.971 22.56 59.171 36.602 122.036 40.607 20.64 1.315 43.279 1.51 67.317.582l-33.518-44.555c-24.621.993-47.802.814-68.906-.53-53.177-3.388-91.783-13.989-113.098-30.891z" fill="#111"/><path d="M398.946 1.166c43.676 2.783 71.872 39.692 63.005 82.443-4.346 20.952-16.804 39.428-33.514 52.493-28.98 28.099-26.529 68.118 3.568 84.776l269.135 17.147-63.864 307.904c-13.753 20.075-35.918 30.537-56.802 29.207-11.897-.758-23.381-5.346-32.648-14.166-11.431-14.44-29.096-24.013-50.515-25.378-43.651-2.781-86.224 29.62-95.091 72.37s19.33 79.66 62.981 82.441c21.542 1.372 42.839-5.84 59.939-18.611 12.54-7.281 25.475-10.243 37.271-9.491 20.877 1.33 38.177 14.299 43.352 35.562l-63.879 307.978c-24.466 1.003-47.786.865-69.327-.507-81.802-5.212-137.684-28.234-130.857-74.123 12.725-85.697 13.788-175.444-9.113-207.387-32.273-44.981-228.629-14.273-270.487-64.026-64.465-76.732 48.992-126.873 7.043-176.315-9.924-11.7 1.816-42.146 26.57-46.617-17.751-5.905-33.651-15.194-19.847-39.315 25.855-45.219 32.158-102.849 18.151-109.569-26.536-12.734-79.906-9.155-91.406-46.886-4.519-14.735.762-30.436 12.231-46.797l262.029 16.694c36.048-12.395 54.798-50.842 38.37-81.81-11.094-14.86-15.76-34.55-11.385-55.647 8.867-42.75 51.44-75.151 95.09-72.37z" fill="#b0c3ff"/><path d="M510.886 1007.494c-13.405 0-26.242-.388-38.392-1.162-62.133-3.958-104.47-17.799-122.435-40.026-8.177-10.116-11.322-21.973-9.348-35.241 11.548-77.772 15.265-172.902-8.937-206.657-15.494-21.594-69.61-25.445-126.905-29.523-59.907-4.264-121.854-8.672-143.535-34.441-36.154-43.034-17.004-77.852-.108-108.57 13.639-24.798 25.418-46.215 7.154-67.742-4.344-5.121-4.982-13.63-1.708-22.763 3.474-9.688 11.902-20.844 25.443-24.693-8.752-3.19-18.122-7.959-21.316-16.321-2.46-6.44-1.087-14.061 4.2-23.298 16.837-29.448 30.636-78.183 23.517-101.032-1.16-3.723-2.819-6.125-4.932-7.139-8.008-3.843-18.534-6.19-29.679-8.676-25.356-5.655-54.097-12.064-62.251-38.82-4.31-14.05-.264-29.642 12.369-47.663.201-.285.55-.448.882-.424l261.829 16.682c18.465-6.407 32.917-19.872 39.665-36.967 5.758-14.586 5.045-29.959-2.005-43.297-11.708-15.72-15.798-35.742-11.516-56.386 8.95-43.15 52.082-75.976 96.133-73.165 21.446 1.366 39.907 10.843 51.983 26.684 12.041 15.795 16.28 36.024 11.938 56.959-4.242 20.45-16.257 39.287-33.835 53.045-14.803 14.373-21.973 32.535-19.671 49.838 1.893 14.228 10.011 26.009 22.87 33.199l268.91 17.132a1.003 1.003 0 0 1 .916 1.202l-63.864 307.905a.994.994 0 0 1-.154.362c-13.49 19.69-35.599 31.048-57.69 29.64-12.692-.809-24.198-5.802-33.274-14.439a1.171 1.171 0 0 1-.095-.104c-11.734-14.824-29.418-23.703-49.794-25-43.106-2.749-85.292 29.363-94.048 71.575-4.223 20.361-.114 40.017 11.572 55.346 11.716 15.37 29.648 24.565 50.493 25.894 20.566 1.312 41.622-5.229 59.277-18.414a.882.882 0 0 1 .096-.063c12.22-7.095 25.305-10.424 37.836-9.625 22.192 1.414 39.151 15.333 44.26 36.324a.986.986 0 0 1 .007.439l-63.879 307.978a1 1 0 0 1-.938.796 763.889 763.889 0 0 1-31.041.651zM15.34 195.333C3.337 212.62-.514 227.499 3.566 240.804c7.815 25.641 35.951 31.916 60.774 37.452 11.259 2.511 21.894 4.883 30.108 8.825 2.633 1.263 4.644 4.071 5.976 8.346 5.959 19.126-2.139 64.926-23.691 102.621-4.97 8.684-6.3 15.747-4.067 21.591 3.3 8.637 14.218 13.236 23.362 16.278a1 1 0 0 1-.138 1.933c-14.712 2.658-23.767 14.24-27.336 24.192-2.985 8.325-2.468 16.293 1.351 20.794 19.155 22.577 6.486 45.612-6.927 69.999-16.586 30.156-35.385 64.336-.113 106.32 21.135 25.122 82.653 29.5 142.146 33.733 57.775 4.112 112.347 7.996 128.388 30.353 24.549 34.241 20.896 129.958 9.29 208.117-1.888 12.692 1.115 24.027 8.925 33.69 17.604 21.78 59.448 35.365 121.007 39.287 20.962 1.336 43.985 1.516 68.442.538l63.675-306.992c-4.958-19.989-21.181-33.232-42.39-34.583-12.122-.771-24.793 2.454-36.655 9.329-18.026 13.445-39.533 20.11-60.554 18.773-21.432-1.366-39.884-10.84-51.957-26.677-12.042-15.797-16.282-36.027-11.939-56.965 8.95-43.15 52.087-75.971 96.133-73.165 20.923 1.333 39.101 10.459 51.191 25.7 8.724 8.28 19.778 13.067 31.972 13.844 21.335 1.354 42.696-9.599 55.8-28.609l63.589-306.58-267.986-17.074a.987.987 0 0 1-.421-.123c-13.54-7.494-22.092-19.851-24.079-34.793-2.388-17.953 5.011-36.751 20.3-51.575a.783.783 0 0 1 .081-.07c17.229-13.47 29.001-31.905 33.151-51.909 4.223-20.36.114-40.013-11.57-55.34-11.719-15.374-29.661-24.572-50.52-25.901-43.102-2.753-85.292 29.362-94.048 71.575-4.169 20.103-.189 39.581 11.207 54.846a.969.969 0 0 1 .082.129c7.362 13.878 8.12 29.872 2.135 45.036-6.986 17.699-21.953 31.618-41.063 38.189a.988.988 0 0 1-.389.052z" fill="#111"/><path d="m632.673 727.057-34.979-46.498c2.811 3.737 5.091 7.996 6.729 12.733.957 2.769 1.095 5.757.5 8.626l-63.038 303.923 34.979 46.499 63.038-303.924c.595-2.869.457-5.857-.5-8.626-1.637-4.737-3.918-8.996-6.729-12.733z" fill="#3658c1"/><path d="M576.864 1053.34a1 1 0 0 1-.799-.399l-34.979-46.499a1 1 0 0 1-.18-.804l63.038-303.923c.572-2.759.411-5.559-.466-8.096-1.568-4.539-3.776-8.721-6.561-12.431l-.021-.028a1 1 0 0 1 1.598-1.202l34.979 46.499c2.92 3.881 5.233 8.258 6.875 13.008.994 2.879 1.179 6.045.533 9.156l-63.038 303.924a1 1 0 0 1-.979.795zm-33.909-47.738 33.378 44.371 62.589-301.759c.572-2.758.411-5.558-.466-8.096-1.573-4.553-3.788-8.744-6.583-12.459l-26.876-35.728c.127.343.25.688.371 1.035.995 2.878 1.179 6.044.533 9.156z" fill="#111"/></g></svg></g><g transform="translate(1154.3999999999999 1546.8) rotate(0.0 538.1999999999999 497.9999999999999) scale(1.2001230895476458 1.2002241382426835)"><svg width="896.908" height="829.845" viewBox="0 0 896.908 829.845"><path d="m657.889 186.982-40.352 14.83c-13.347-33.407 1.011-66.941 29.695-77.483l40.352-14.83c-28.684 10.542-43.043 44.076-29.695 77.483" fill="#b0c3ff"/><path d="M617.536 202.812c-.397 0-.772-.239-.929-.629-6.823-17.08-6.822-34.921.004-50.236 5.99-13.441 16.742-23.583 30.275-28.556l40.353-14.83a1 1 0 1 1 .689 1.877c-13.021 4.786-23.37 14.549-29.139 27.493-6.604 14.818-6.595 32.106.027 48.68a.992.992 0 0 1-.016.778.992.992 0 0 1-.568.531l-40.353 14.83a.975.975 0 0 1-.343.062zm56.861-87.401-26.821 9.856c-13.021 4.786-23.37 14.55-29.139 27.493-6.483 14.548-6.593 31.478-.327 47.775l38.475-14.14c-6.446-16.788-6.32-34.25.379-49.279 3.939-8.839 9.938-16.252 17.433-21.705z" fill="#111"/><path d="m618.909 305.992-40.352 14.83c23.227-8.536 41.767-28.694 48.05-55.957 5.061-21.963 1.237-44.39-9.07-63.053l40.352-14.83c10.307 18.663 14.131 41.09 9.07 63.053-6.283 27.263-24.824 47.421-48.05 55.957" fill="#b0c3ff"/><path d="M578.556 321.822a1 1 0 0 1-.344-1.939l.025-.01c23.719-8.727 41.436-29.373 47.395-55.233 4.834-20.975 1.647-43.117-8.971-62.346a.996.996 0 0 1 .53-1.422l40.353-14.83a.998.998 0 0 1 1.22.455c10.857 19.66 14.113 42.304 9.17 63.761-6.114 26.53-24.312 47.716-48.68 56.671l-40.353 14.83a.969.969 0 0 1-.345.063zm40.412-119.471c10.412 19.422 13.473 41.654 8.613 62.739-4.744 20.586-16.762 37.953-33.294 48.886l24.277-8.922c23.73-8.722 41.458-29.373 47.42-55.243 4.771-20.704 1.729-42.541-8.56-61.593zm-.059 103.641h.01z" fill="#111"/><path d="m309.216 15.83-73.789 320.205c-6.602 8.706-14.917 14.733-23.978 18.062l40.352-14.829c9.06-3.33 17.376-9.357 23.978-18.063L349.569 1z" fill="#b0c3ff"/><path d="M211.449 355.098a1 1 0 0 1-.344-1.939l.035-.013c9.066-3.34 17.14-9.404 23.361-17.545l73.741-319.995a.998.998 0 0 1 .63-.714L349.225.062a1 1 0 0 1 1.319 1.163l-73.79 320.205a1.001 1.001 0 0 1-.178.379c-6.479 8.543-14.926 14.905-24.43 18.397l-40.353 14.83a.985.985 0 0 1-.344.062zm98.62-338.516L236.401 336.26a1.013 1.013 0 0 1-.178.38c-3.427 4.519-7.405 8.428-11.799 11.624l27.032-9.934c9.081-3.338 17.167-9.407 23.396-17.559L348.18 2.576zm-74.642 319.453h.01z" fill="#111"/><path d="m239.377 479.171-40.352 14.83c-4.268-24.282-20.717-42.298-41.1-48.477-10.959-3.322-23.057-3.221-35.004 1.17l40.352-14.83c11.948-4.391 24.046-4.492 35.004-1.17 20.383 6.179 36.832 24.195 41.1 48.477" fill="#b0c3ff"/><path d="M199.024 495.001a1.003 1.003 0 0 1-.985-.826c-4.059-23.093-19.541-41.368-40.405-47.693-11.191-3.393-23.067-2.997-34.348 1.144l-.022.008a1 1 0 1 1-.689-1.877l40.352-14.83c11.7-4.299 24.024-4.71 35.64-1.188 21.591 6.545 37.605 25.421 41.796 49.261.083.477-.187.945-.641 1.112l-40.353 14.83a1.073 1.073 0 0 1-.345.059zm-56.761-52.804c5.379 0 10.736.789 15.951 2.369 21.234 6.438 37.076 24.802 41.579 48.086l38.449-14.13c-4.278-22.704-19.64-40.622-40.256-46.872-11.198-3.395-23.083-2.996-34.37 1.151l-26.126 9.602a55.61 55.61 0 0 1 4.773-.206z" fill="#111"/><path d="m149.741 438.088-40.352 14.83c-14.632 5.377-31.132 6.138-47.586 1.15-42.604-12.915-68.834-59.422-58.584-103.9 6.282-27.262 24.824-47.421 48.051-55.958l40.352-14.83c-23.228 8.536-41.769 28.696-48.051 55.958-10.25 44.478 15.98 90.985 58.583 103.901 16.454 4.988 32.955 4.227 47.587-1.151" fill="#b0c3ff"/><path d="M84.088 458.421c-7.52 0-15.104-1.13-22.576-3.396-43.026-13.043-69.614-60.183-59.268-105.081 6.114-26.531 24.313-47.717 48.681-56.672l40.353-14.83a.999.999 0 1 1 .689 1.877c-23.732 8.722-41.46 29.374-47.421 55.244-10.116 43.895 15.857 89.974 57.898 102.719 15.727 4.768 31.962 4.376 46.951-1.132a1 1 0 0 1 .689 1.877l-40.352 14.83a74.163 74.163 0 0 1-25.644 4.564zm-8.196-172.194-24.277 8.922c-23.732 8.722-41.459 29.374-47.421 55.244-10.115 43.895 15.858 89.974 57.899 102.719 15.726 4.768 31.962 4.376 46.95-1.132l24.263-8.917c-10.376 1.244-21.019.292-31.441-2.867-43.027-13.044-69.614-60.184-59.268-105.083 4.744-20.585 16.763-37.953 33.295-48.886z" fill="#111"/><path d="m532.135 784.618-40.352 14.83c-94.402 34.694-245.156 37.403-366.565 14.833l40.352-14.83c121.409 22.57 272.163 19.861 366.565-14.833" fill="#b0c3ff"/><path d="M288.798 829.838c-55.352 0-112.5-5.044-163.763-14.574a1 1 0 0 1-.162-1.921l40.353-14.83a.977.977 0 0 1 .527-.044c60.412 11.23 129.023 16.221 193.193 14.041 68.033-2.307 127.802-12.276 172.844-28.829a1 1 0 1 1 .689 1.877l-40.352 14.83c-45.239 16.626-105.223 26.637-173.466 28.951a885.78 885.78 0 0 1-29.863.499zm-159.801-15.881c59.531 10.766 126.701 15.514 189.597 13.382 68.034-2.307 127.802-12.276 172.845-28.83l5.383-1.979c-39.348 10.08-86.217 16.228-137.808 17.977-64.216 2.176-132.87-2.802-193.356-14.024z" fill="#111"/><path d="m165.57 799.451-40.353 14.83 73.807-320.28 40.353-14.83z" fill="#b0c3ff"/><path d="M125.218 815.281a1 1 0 0 1-.974-1.225l73.807-320.28a.998.998 0 0 1 .63-.714l40.353-14.83a.999.999 0 0 1 1.319 1.163l-73.807 320.28a.998.998 0 0 1-.63.714l-40.353 14.83a.986.986 0 0 1-.345.062zm74.659-320.528-73.27 317.952 38.111-14.006 73.27-317.952zM165.57 799.451h.01z" fill="#111"/><path d="M895.908 166.626C852.264 248.569 795.589 322.1 735.446 375.463c-46.626 41.331-96.427 173.699-113.097 323.29-12.273 110.166-269.454 135.521-456.78 100.698l73.807-320.28c-4.268-24.282-20.717-42.298-41.1-48.477-11.513-3.49-24.284-3.202-36.817 1.87-17.181 10.036-38.281 13.049-59.304 6.675-42.603-12.915-68.833-59.423-58.583-103.901 10.244-44.454 53.084-70.022 95.687-57.107 20.88 6.33 37.835 20.746 48.464 39.024 8.754 11.691 19.825 19.28 31.441 22.802 20.384 6.179 42.447-.167 56.616-18.852L349.569 1l197.429 59.852c28.858 24.933 29.786 68.983.402 92.958-16.828 10.41-29.689 27.645-34.715 49.457-10.245 44.456 15.986 90.96 58.589 103.875 42.602 12.915 85.44-12.651 95.685-57.106 5.061-21.963 1.237-44.39-9.07-63.053-14.935-37.382 4.82-74.921 40.517-80.23z" fill="#fff"/><path d="M329.235 814.982c-55.266 0-112.327-4.97-163.848-14.547-.269-.05-.504-.207-.653-.435s-.199-.507-.139-.773l73.761-320.081c-4.112-23-19.565-41.188-40.37-47.494-11.801-3.577-24.276-2.949-36.086 1.812-18.146 10.577-39.465 12.968-60.036 6.732-43.027-13.044-69.614-60.184-59.268-105.083 5.104-22.146 18.25-40.329 37.019-51.2 18.132-10.501 39.416-12.859 59.933-6.64 20.401 6.185 37.804 20.186 49.008 39.428 8.275 11.034 18.958 18.779 30.896 22.398 20.746 6.289 41.955-.732 55.4-18.33L348.592.774a.997.997 0 0 1 .474-.641c.24-.139.528-.171.791-.092l197.43 59.852c.134.041.258.109.363.2 14.489 12.519 22.647 30.396 22.385 49.046-.253 17.934-8.067 34.072-22.005 45.443a1.004 1.004 0 0 1-.105.076c-17.309 10.708-29.478 28.049-34.267 48.831-10.112 43.88 15.863 89.948 57.904 102.693 19.98 6.058 40.702 3.765 58.35-6.456 18.283-10.589 31.094-28.317 36.071-49.918 4.833-20.977 1.647-43.118-8.971-62.345a.96.96 0 0 1-.054-.112c-7.611-19.052-6.664-39.223 2.599-55.343 8.303-14.449 22.047-23.771 38.7-26.248a1 1 0 0 1 .438.032l197.502 59.874a1.002 1.002 0 0 1 .593 1.428c-43.336 81.364-100.399 155.629-160.681 209.115-23.013 20.399-46.986 63.241-67.505 120.636-21.315 59.623-37.39 131.368-45.262 202.017-2.516 22.577-15.306 42.562-38.015 59.401-47.934 35.542-126.938 48.871-184.774 53.794-22.999 1.961-46.989 2.925-71.318 2.925zm-162.456-16.324c73.793 13.61 158.872 17.77 233.606 11.409 81.39-6.928 146.647-25.896 183.752-53.408 22.245-16.494 34.767-36.014 37.218-58.016 7.89-70.799 24.001-142.704 45.367-202.469 20.63-57.706 44.801-100.841 68.061-121.459 59.843-53.097 116.514-126.744 159.67-207.485l-196.121-59.455c-15.938 2.434-29.085 11.388-37.04 25.232-8.946 15.57-9.855 35.084-2.497 53.547 10.833 19.647 14.078 42.268 9.139 63.706-5.104 22.146-18.251 40.329-37.019 51.199-18.131 10.501-39.416 12.858-59.932 6.639-43.027-13.044-69.617-60.172-59.273-105.057 4.904-21.283 17.371-39.054 35.107-50.047 13.439-10.989 20.975-26.57 21.219-43.881.254-17.991-7.591-35.242-21.532-47.367L350.303 2.268 276.754 321.43a1.001 1.001 0 0 1-.178.379c-13.956 18.405-36.065 25.763-57.703 19.206-12.366-3.75-23.415-11.758-31.952-23.16a1.075 1.075 0 0 1-.063-.097c-10.948-18.829-27.955-32.526-47.889-38.569-19.98-6.058-40.704-3.765-58.351 6.457-18.284 10.589-31.094 28.317-36.072 49.918-10.116 43.895 15.857 89.974 57.898 102.719 20.056 6.08 40.835 3.743 58.509-6.582a.916.916 0 0 1 .13-.063c12.257-4.96 25.22-5.618 37.482-1.9 21.591 6.545 37.605 25.421 41.796 49.261.022.132.02.268-.011.398z" fill="#111"/></svg></g><g transform="translate(412.8 609.6) rotate(0.0 614.4 455.99999999999994) scale(1.200600300150075 1.2001626536227934)"><svg width="1023.488" height="759.897" viewBox="0 0 1023.488 759.897"><g><path d="m440.828 497.162 32.652 45.834c-11.255-15.799-29.521-26.573-51.933-28.464-43.84-3.698-86.965 27.993-96.293 70.787-4.563 20.932-.196 40.612 10.568 55.721l-32.652-45.834c-10.764-15.109-15.131-34.789-10.568-55.721 9.329-42.794 52.454-74.485 96.293-70.787 22.412 1.891 40.678 12.666 51.933 28.464" fill="#b0c3ff"/><path d="M335.822 642.041a.998.998 0 0 1-.815-.42l-32.652-45.834c-11.381-15.976-15.192-36.046-10.73-56.514 9.417-43.199 53.098-75.307 97.354-71.571 22.017 1.858 40.719 12.114 52.664 28.88l32.652 45.834a1 1 0 0 1-1.629 1.161l-.029-.04c-11.599-16.257-29.771-26.202-51.174-28.007-43.304-3.662-86.022 27.75-95.232 70.003-4.34 19.91-.645 39.417 10.405 54.928a1 1 0 0 1-.814 1.58zm46.104-172.635c-40.857 0-79.625 30.281-88.348 70.293-4.34 19.91-.645 39.417 10.405 54.928l23.22 32.595c-5.069-12.921-6.132-27.415-2.927-42.115 9.416-43.198 53.079-75.31 97.354-71.571 16.066 1.355 30.368 7.184 41.567 16.75l-23.185-32.544c-11.598-16.279-29.782-26.24-51.203-28.047a81.76 81.76 0 0 0-6.883-.289z" fill="#111"/><path d="M878.012 47.33 845.36 1.497l-60.989 279.774c1.504 6.472 4.121 12.211 7.617 17.118l32.652 45.834c-3.496-4.907-6.113-10.645-7.617-17.118z" fill="#b0c3ff"/><path d="M824.642 345.222a.998.998 0 0 1-.815-.42c-.009-.013-.019-.025-.027-.039l-32.625-45.795c-3.66-5.137-6.276-11.015-7.777-17.471a.986.986 0 0 1-.003-.439L844.383 1.284a1 1 0 0 1 1.791-.368l32.652 45.833a.998.998 0 0 1 .163.793l-60.94 279.553c1.448 6.115 3.939 11.68 7.406 16.546a1 1 0 0 1-.813 1.581zm-39.245-63.96c1.449 6.115 3.94 11.681 7.406 16.546l24.741 34.729a52.385 52.385 0 0 1-1.495-5.207.986.986 0 0 1-.003-.439L876.941 47.55 845.856 3.917z" fill="#111"/><path d="m264.162 677.119 32.653 45.834-263.163-22.201L1 654.918z" fill="#b0c3ff"/><path d="m296.815 723.953-.084-.003-263.163-22.201a.998.998 0 0 1-.73-.417L.185 655.499a1 1 0 0 1 .899-1.576l263.163 22.2c.293.025.56.177.73.417l32.652 45.834a1 1 0 0 1-.814 1.579zM34.198 699.795l260.549 21.98-31.13-43.699-260.55-21.98z" fill="#111"/><path d="m303.498 595.664 32.652 45.834c16.207 31.473-3.012 69.737-39.335 81.455l-32.652-45.834c36.322-11.718 55.541-49.982 39.335-81.455" fill="#b0c3ff"/><path d="M296.814 723.953a.998.998 0 0 1-.814-.42l-32.652-45.834a1.002 1.002 0 0 1 .507-1.532c18.589-5.997 33.271-19.173 40.282-36.152 6.048-14.646 5.505-30.234-1.529-43.893a1 1 0 0 1 1.704-1.038l32.652 45.834c.028.039.053.08.075.122 7.307 14.19 7.875 30.374 1.6 45.571-7.236 17.522-22.368 31.115-41.518 37.293a.985.985 0 0 1-.307.049zm-31.052-46.313 31.44 44.133c18.26-6.099 32.666-19.159 39.589-35.925 6.038-14.623 5.506-30.184-1.497-43.828l-27.492-38.59c3.863 12.038 3.277 25.018-1.815 37.349-7.073 17.126-21.688 30.498-40.225 36.861z" fill="#111"/><path d="m841.257 420.092 32.652 45.834c-9.229-9.06-20.721-13.908-32.671-14.917-20.973-1.769-43.354 8.293-57.369 28.188l-32.652-45.834c14.015-19.895 36.396-29.957 57.369-28.188 11.95 1.008 23.442 5.856 32.671 14.917" fill="#b0c3ff"/><path d="M783.869 480.196a.997.997 0 0 1-.814-.42l-32.652-45.833a1 1 0 0 1-.003-1.156c13.75-19.519 36.082-30.479 58.271-28.609 12.744 1.075 24.254 6.331 33.288 15.2.042.041.08.085.114.133l32.652 45.834a.999.999 0 0 1-1.515 1.293c-8.697-8.538-19.781-13.598-32.055-14.633-21.492-1.817-43.125 8.826-56.467 27.767a1 1 0 0 1-.815.424h-.004zm-31.425-46.833 31.429 44.116c13.807-18.804 35.691-29.301 57.449-27.466 10.01.844 19.259 4.268 27.145 9.996l-27.972-39.265c-8.688-8.501-19.748-13.539-31.992-14.572-21.27-1.795-42.685 8.612-56.059 27.191z" fill="#111"/><path d="m977.483 320.118 32.652 45.834c10.766 15.112 15.12 34.82 10.559 55.742-9.329 42.794-52.428 74.488-96.269 70.789-21.511-1.815-39.171-11.804-50.516-26.557l-32.652-45.834c11.346 14.754 29.005 24.743 50.516 26.557 43.84 3.698 86.94-27.995 96.269-70.789 4.561-20.923.206-40.63-10.559-55.742" fill="#b0c3ff"/><path d="M931.374 493.775c-2.341 0-4.683-.097-7.032-.295-21.036-1.775-39.228-11.344-51.225-26.945l-32.674-45.863a1 1 0 0 1 1.607-1.19c11.65 15.15 29.339 24.444 49.808 26.17 43.295 3.653 85.997-27.752 95.208-70.005 4.34-19.908.657-39.406-10.367-54.907l-.03-.042a1 1 0 0 1 1.629-1.161l32.652 45.833c11.379 15.973 15.187 36.051 10.722 56.535-8.918 40.906-48.546 71.866-90.298 71.87zm-81.159-62.832 24.508 34.403c11.628 15.12 29.317 24.414 49.786 26.141 43.292 3.658 85.997-27.753 95.208-70.006 4.343-19.926.651-39.441-10.397-54.949l-23.224-32.6c5.069 12.924 6.13 27.428 2.923 42.141-8.917 40.904-48.545 71.864-90.297 71.868-2.341 0-4.683-.097-7.032-.295-15.945-1.346-30.257-7.169-41.475-16.703z" fill="#111"/><path d="m751.217 433.363 32.652 45.834-60.973 279.7-32.652-45.834z" fill="#b0c3ff"/><path d="M722.896 759.897a.998.998 0 0 1-.814-.42l-32.652-45.834a.998.998 0 0 1-.163-.793l60.973-279.7a1 1 0 0 1 1.791-.368l32.652 45.833a.998.998 0 0 1 .163.793L723.873 759.11a1 1 0 0 1-.977.787zm-31.581-47.054 31.085 43.634 60.397-277.061-31.085-43.633z" fill="#111"/><path d="m690.244 713.063-270.276-22.8c-6.348-3.663-11.45-8.344-15.273-13.71l32.652 45.834c3.823 5.366 8.925 10.048 15.273 13.71l270.276 22.801z" fill="#b0c3ff"/><path d="m722.897 759.897-.084-.003-270.276-22.801a1.018 1.018 0 0 1-.416-.13c-6.328-3.651-11.572-8.36-15.588-13.997l-32.652-45.833a1 1 0 1 1 1.629-1.161c3.807 5.343 8.774 9.821 14.766 13.313l270.052 22.781c.293.025.56.177.73.417l32.652 45.834a1 1 0 0 1-.813 1.58zm-269.969-24.778 267.901 22.601-31.131-43.699-269.814-22.761a1.018 1.018 0 0 1-.416-.13 52.35 52.35 0 0 1-6.07-4.084l24.764 34.761c3.807 5.343 8.774 9.821 14.766 13.312z" fill="#111"/><path d="m845.36 1.497-60.989 279.774c4.993 21.486 22.249 34.88 43.219 36.649 11.845.999 24.877-1.713 37.548-8.772 17.315-12.508 38.763-19.321 60.422-17.494 43.84 3.698 71.81 41.411 62.481 84.205s-52.428 74.488-96.269 70.789c-21.511-1.815-39.17-11.804-50.516-26.557-9.229-9.06-20.721-13.908-32.671-14.917-20.973-1.769-43.354 8.293-57.369 28.188l-60.973 279.7-270.276-22.801c-30.108-17.371-32.179-57.653-2.781-85.303 16.92-12.787 29.615-31.081 34.193-52.079 9.329-42.794-18.647-80.484-62.486-84.182-43.84-3.698-86.965 27.993-96.293 70.787-4.609 21.144-.107 41.01 10.897 56.179 16.207 31.473-3.012 69.737-39.335 81.455L1 654.918c41.463-57.526 161.4-121.809 199.198-182.552 13.791-22.167-2.769-51.206 7.074-74.939C297.88 179.058 503.136-9.98 845.36 1.497z" fill="#fff"/><path d="m690.245 714.063-.084-.003-270.275-22.8a1.018 1.018 0 0 1-.416-.13c-13.65-7.876-22.142-20.588-23.91-35.796-2.091-17.991 5.542-36.617 20.943-51.102a1.07 1.07 0 0 1 .082-.069c17.443-13.182 29.454-31.47 33.819-51.494 4.436-20.347.517-40.168-11.034-55.812-11.625-15.745-29.581-25.391-50.56-27.161-43.295-3.656-86.021 27.75-95.232 70.004-4.388 20.125-.577 39.792 10.729 55.378.03.041.056.084.08.129 7.307 14.19 7.875 30.375 1.6 45.572-7.235 17.522-22.368 31.115-41.517 37.292a.965.965 0 0 1-.391.045L.916 655.916a1 1 0 0 1-.727-1.581c19.714-27.353 56.192-55.53 94.811-85.362 41.563-32.105 84.541-65.303 104.349-97.135 7.189-11.555 5.942-24.852 4.623-38.929-1.133-12.084-2.304-24.581 2.376-35.865 48.978-118.038 126.796-216.45 225.042-284.596 54.799-38.01 116.154-66.81 182.362-85.6C685.098 6.601 763.031-2.265 845.394.497a1 1 0 0 1 .943 1.212l-60.94 279.553c4.79 20.207 20.969 33.864 42.277 35.661 12.169 1.028 24.939-1.955 36.927-8.62 18.241-13.162 39.914-19.425 61.044-17.646 21.553 1.818 40.017 11.75 51.989 27.965 11.904 16.122 15.947 36.525 11.385 57.45-8.917 40.904-48.545 71.864-90.297 71.868-2.341 0-4.683-.097-7.032-.295-21.01-1.772-39.184-11.321-51.182-26.889-8.69-8.509-19.756-13.552-32.006-14.585-21.422-1.81-42.999 8.765-56.352 27.603l-60.929 279.501a1 1 0 0 1-.976.788zm-269.969-24.778 269.178 22.708L750.24 433.15a.994.994 0 0 1 .16-.363c13.75-19.519 36.086-30.479 58.271-28.609 12.744 1.075 24.254 6.331 33.288 15.2a.912.912 0 0 1 .092.104c11.65 15.15 29.339 24.444 49.808 26.17 43.295 3.653 85.997-27.752 95.208-70.005 4.437-20.354.517-40.185-11.04-55.836-11.625-15.745-29.577-25.391-50.548-27.16-20.669-1.745-41.89 4.403-59.753 17.308a.922.922 0 0 1-.099.063c-12.351 6.88-25.533 9.952-38.119 8.895-22.28-1.879-39.181-16.218-44.109-37.419a.986.986 0 0 1-.003-.439L844.127 2.457c-81.706-2.626-159.029 6.224-229.83 26.316-65.995 18.729-127.15 47.434-181.768 85.318-97.931 67.928-175.504 166.036-224.334 283.72-4.49 10.826-3.342 23.07-2.232 34.912 1.292 13.788 2.629 28.044-4.916 40.172-19.999 32.138-63.122 65.448-104.824 97.661-37.824 29.217-73.587 56.842-93.365 83.516l261.188 22.034c18.499-6.025 33.105-19.17 40.092-36.09 6.038-14.622 5.506-30.183-1.495-43.826-11.61-16.043-15.524-36.253-11.019-56.917 9.417-43.199 53.098-75.307 97.354-71.571 21.561 1.819 40.028 11.751 52 27.966 11.897 16.114 15.938 36.508 11.379 57.425-4.463 20.475-16.723 39.164-34.524 52.632-14.91 14.042-22.304 32.036-20.288 49.377 1.686 14.493 9.755 26.624 22.731 34.183z" fill="#111"/></g></svg></g><g transform="translate(1483.2 466.79999999999995) rotate(0.0 389.4 624.0) scale(1.200517943026267 1.2005864402996849)"><svg width="648.72" height="1039.492" viewBox="0 0 648.72 1039.492"><linearGradient id="d" gradientTransform="matrix(.9974 -.0726 .0726 .9974 -386.5536 -163.8009)" gradientUnits="userSpaceOnUse" x1="522.796" x2="614.353" y1="544.691" y2="652.828"><stop offset="0" stop-color="#3658c1"/><stop offset="1" stop-color="#111"/></linearGradient><linearGradient id="e" gradientTransform="matrix(.9974 -.0726 .0726 .9974 -386.5536 -163.8009)" gradientUnits="userSpaceOnUse" x1="888.843" x2="700.517" y1="1075.645" y2="1036.341"><stop offset=".465" stop-color="#3658c1"/><stop offset="1" stop-color="#111"/></linearGradient><linearGradient id="f" gradientTransform="matrix(.9974 -.0726 .0726 .9974 -386.5536 -163.8009)" gradientUnits="userSpaceOnUse" x1="351.719" x2="537.417" y1="948.664" y2="991.601"><stop offset=".342" stop-color="#3658c1"/><stop offset="1" stop-color="#111"/></linearGradient><linearGradient id="g" gradientTransform="matrix(.9974 -.0726 .0726 .9974 -386.5536 -163.8009)" gradientUnits="userSpaceOnUse" x1="593.459" x2="575.177" y1="1259.833" y2="1090.775"><stop offset=".38" stop-color="#3658c1"/><stop offset="1" stop-color="#111"/></linearGradient><path d="m261.243 453.217-33.881 32.06c12.86-12.168 21.269-29.174 22.611-48.949 3.012-44.362-30.68-85.882-75.28-92.744-21.998-3.384-42.525 2.326-58.053 14.279l33.881-32.06c15.528-11.953 36.056-17.663 58.053-14.279 44.6 6.862 78.292 48.382 75.28 92.744-1.342 19.775-9.751 36.781-22.611 48.949" fill="url(#d)"/><path d="M227.362 486.277a1.001 1.001 0 0 1-.688-1.726c13.109-12.404 21.03-29.554 22.302-48.29 2.973-43.785-30.419-84.916-74.436-91.688-20.957-3.227-41.305 1.777-57.29 14.083a1.001 1.001 0 0 1-1.298-1.519l33.881-32.06c.024-.023.051-.045.077-.066 16.424-12.643 37.31-17.786 58.815-14.475 45.018 6.926 79.168 49.005 76.126 93.801-1.306 19.238-9.446 36.855-22.922 49.607l-33.881 32.06a.994.994 0 0 1-.686.273zm-65.187-144.66c4.18 0 8.413.324 12.671.979 45.018 6.926 79.168 49.004 76.127 93.8-.905 13.329-5.091 25.88-12.058 36.573l21.641-20.478c13.11-12.405 21.03-29.555 22.301-48.29 2.974-43.785-30.417-84.916-74.435-91.688-20.938-3.221-41.271 1.769-57.25 14.053l-25.716 24.333c11.101-6.113 23.647-9.282 36.719-9.282zm99.068 111.6h.01z" fill="#111"/><path d="m65.271 291.021-33.881 32.06L51.081 33.06 84.962 1z" fill="#3658c1"/><path d="M31.39 324.081a1.001 1.001 0 0 1-.998-1.068l19.69-290.021c.018-.25.128-.486.311-.659L84.274.273a1.001 1.001 0 0 1 1.685.795L66.268 291.089c-.018.25-.128.486-.311.659l-33.88 32.06a1 1 0 0 1-.687.273zM52.053 33.517l-19.492 287.08 31.737-30.033L83.791 3.485zM65.27 291.021h.01z" fill="#111"/><path d="m150.521 325.803-33.881 32.06c-11.679 6.574-24.361 8.544-36.409 6.69-21.324-3.281-40.652-18.548-48.841-41.471l33.881-32.06c8.188 22.924 27.516 38.191 48.841 41.471 12.048 1.854 24.73-.116 36.409-6.69" fill="#3658c1"/><path d="M88.892 366.219a57.91 57.91 0 0 1-8.813-.678c-22.572-3.473-41.59-19.613-49.63-42.123a.999.999 0 0 1 .254-1.063l33.88-32.06a.998.998 0 0 1 1.629.39c7.794 21.817 26.206 37.458 48.052 40.82 12.375 1.902 24.745-.369 35.768-6.573a1 1 0 0 1 1.178 1.598l-33.881 32.06c-.06.056-.126.104-.197.145-8.796 4.95-18.421 7.484-28.24 7.484zm-56.338-42.862c7.917 21.497 26.188 36.878 47.829 40.208 12.334 1.9 24.664-.354 35.659-6.513l28.998-27.439c-9.826 4.167-20.448 5.506-31.082 3.87-22.092-3.399-40.777-18.931-49.102-40.693z" fill="#111"/><path d="M399.847 794.781c-8.605 2.443-15.914 6.669-21.723 12.165l-33.88 32.06c5.808-5.496 13.117-9.723 21.722-12.165l206.648 31.793 33.88-32.06z" fill="url(#e)"/><g fill="#111"><path d="M572.614 859.635a.964.964 0 0 1-.152-.012l-206.431-31.76c-8.16 2.349-15.258 6.342-21.1 11.871a1.001 1.001 0 0 1-1.375-1.453l33.881-32.06c6.129-5.798 13.576-9.971 22.137-12.401.14-.039.284-.048.426-.026l206.647 31.793a1 1 0 0 1 .535 1.714l-33.881 32.06a1 1 0 0 1-.687.274zm-206.647-33.794c.051 0 .102.004.152.012l206.163 31.719 32.042-30.319-204.412-31.45c-8.16 2.35-15.258 6.342-21.1 11.871l-23.608 22.339a55.845 55.845 0 0 1 10.489-4.133.986.986 0 0 1 .274-.039zm-109.076 34.444-33.881 32.06c25.415-27.079 17.352-69.574-15.438-89.873l33.881-32.06c32.791 20.299 40.854 62.793 15.438 89.873"/><path d="M223.011 893.345a1 1 0 0 1-.729-1.685c11.346-12.087 16.401-27.762 14.237-44.138-2.374-17.964-13.116-34.075-29.473-44.201a1.001 1.001 0 0 1-.161-1.577l33.881-32.06c.33-.312.83-.362 1.214-.124 16.868 10.442 27.949 27.076 30.402 45.638 2.244 16.981-2.998 33.236-14.761 45.77l-.042.042-33.881 32.06a.992.992 0 0 1-.687.275zm-13.817-91.032c16.253 10.477 26.908 26.79 29.308 44.947 1.697 12.849-.891 25.281-7.347 36.001l25.027-23.683c11.33-12.084 16.379-27.751 14.217-44.117-2.343-17.725-12.831-33.644-28.821-43.791zm47.697 57.971h.01z"/></g><path d="m241.453 770.412-33.881 32.06L1 770.69l33.881-32.06z" fill="url(#f)"/><path d="M207.572 803.471a.964.964 0 0 1-.152-.012L.847 771.678a1 1 0 0 1-.535-1.714l33.881-32.06c.225-.212.536-.309.84-.262l206.572 31.782a1 1 0 0 1 .535 1.714l-33.881 32.06a.998.998 0 0 1-.687.273zM3.171 770.012l204.069 31.396 32.042-30.319-204.069-31.396z" fill="#111"/><path d="M30.469 468.075c-3.759 3.557-7.067 7.788-9.783 12.669L1 770.69l33.881-32.06 19.686-289.945c2.716-4.882 6.024-9.112 9.783-12.669z" fill="#3658c1"/><path d="M1 771.69a1.001 1.001 0 0 1-.998-1.068l19.686-289.945c.011-.147.053-.29.124-.418 2.711-4.871 6.065-9.214 9.97-12.91l33.881-32.06a1.001 1.001 0 0 1 1.375 1.453l-.004.003c-3.705 3.507-6.896 7.622-9.484 12.231L35.88 738.697c-.018.25-.128.486-.311.659l-33.881 32.06a1 1 0 0 1-.688.274zm20.668-290.654L2.171 768.205l31.738-30.033 19.659-289.556c.011-.147.053-.29.124-.418.299-.537.605-1.068.92-1.592l-23.456 22.196c-3.704 3.505-6.896 7.621-9.488 12.234z" fill="#111"/><path d="m369.131 986.491-33.881 32.06c-15.989 15.13-38.863 22.778-63.587 18.974-44.575-6.858-78.267-48.379-75.255-92.741 1.342-19.767 9.756-36.769 22.615-48.937l33.881-32.06c-12.859 12.168-21.273 29.171-22.615 48.937-3.012 44.362 30.68 85.883 75.255 92.741 24.725 3.804 47.598-3.844 63.587-18.974" fill="url(#g)"/><path d="M284.118 1039.486c-4.162 0-8.373-.321-12.606-.972-45.004-6.924-79.143-49.001-76.102-93.797 1.306-19.228 9.447-36.842 22.926-49.596l33.881-32.06a1.001 1.001 0 0 1 1.375 1.453l-.035.033c-13.091 12.405-21 29.537-22.27 48.246-2.973 43.785 30.407 84.915 74.409 91.685 23.492 3.612 46.359-3.205 62.744-18.709l.004-.004a1.001 1.001 0 0 1 1.375 1.453l-.036.034-33.845 32.026c-13.882 13.135-32.281 20.208-51.82 20.208zm-42.771-163.387-21.637 20.474c-13.112 12.407-21.034 29.553-22.305 48.278-2.973 43.785 30.407 84.915 74.41 91.685 23.486 3.613 46.361-3.206 62.747-18.712l21.576-20.416c-14.858 8.563-32.627 11.833-50.748 9.045-45.003-6.924-79.142-49.001-76.101-93.797.906-13.32 5.091-25.865 12.058-36.557z" fill="#111"/><path d="M132.694 7.102c304.315 46.82 534.309 330.278 513.748 633.115-4.234 62.367-18.483 125.982-39.947 186.357L399.847 794.78c-34.736 9.86-48.353 48.79-27.403 82.978 13.303 16.693 20.775 37.886 19.287 59.804-3.012 44.362-41.587 74.764-86.187 67.903-44.575-6.858-78.267-48.379-75.255-92.741 1.476-21.743 11.509-40.141 26.603-52.44 25.415-27.079 17.352-69.574-15.438-89.873L34.881 738.63l19.686-289.945c11.105-19.96 32.096-29.027 53.433-25.743 12.148 1.87 24.41 7.744 35.018 17.888 13.586 16.28 32.802 28.004 54.649 31.365 44.6 6.862 83.177-23.565 86.189-67.927s-30.68-85.882-75.28-92.744c-21.998-3.384-42.525 2.326-58.053 14.279-11.679 6.574-24.361 8.544-36.409 6.69-21.324-3.281-40.652-18.548-48.841-41.471L84.962 1a940.417 940.417 0 0 1 47.732 6.102z" fill="#b0c3ff"/><path d="M318.145 1007.441c-4.202 0-8.462-.327-12.754-.987-45.003-6.924-79.142-49.001-76.101-93.797 1.443-21.256 11.001-40.113 26.917-53.104 11.312-12.081 16.353-27.737 14.191-44.091-2.366-17.9-13.042-33.961-29.301-44.092l-206.37-31.751a1 1 0 0 1-.846-1.056l19.686-289.945c.011-.147.053-.29.124-.418 10.947-19.674 31.817-29.728 54.459-26.244 12.923 1.989 25.219 8.267 35.557 18.154.026.026.053.053.076.082 14.018 16.798 33.208 27.813 54.034 31.017 21.5 3.309 42.22-1.979 58.34-14.886 15.793-12.646 25.275-31.156 26.698-52.12 2.974-43.785-30.417-84.916-74.435-91.688-20.957-3.227-41.305 1.777-57.29 14.083a.955.955 0 0 1-.12.079c-11.415 6.426-24.225 8.782-37.053 6.807-22.572-3.473-41.59-19.614-49.63-42.124a1.009 1.009 0 0 1-.057-.404L83.964.932a.999.999 0 0 1 1.1-.926 945.226 945.226 0 0 1 47.783 6.109c74.512 11.464 145.807 37.107 211.904 76.218 63.838 37.773 120.167 86.455 167.423 144.692 47.255 58.237 83.058 123.096 106.412 192.777 24.181 72.146 33.889 146.329 28.854 220.485-4.127 60.777-17.586 123.566-40.003 186.624a1.002 1.002 0 0 1-1.095.653l-206.431-31.76c-15.551 4.478-27.226 14.921-32.889 29.426-6.324 16.198-4.049 35.132 6.241 51.956 14.005 17.597 20.917 39.061 19.465 60.446-1.462 21.521-11.203 40.53-27.432 53.524-13.339 10.681-29.741 16.284-47.151 16.285zM35.94 737.781l205.665 31.643a1 1 0 0 1 .374.138c16.868 10.442 27.949 27.076 30.402 45.638 2.244 16.981-2.998 33.236-14.761 45.77a1.213 1.213 0 0 1-.098.091c-15.513 12.64-24.83 31.012-26.236 51.732-2.973 43.785 30.407 84.915 74.409 91.685 21.509 3.309 42.233-1.977 58.352-14.884 15.786-12.64 25.263-31.142 26.686-52.098 1.42-20.905-5.354-41.898-19.071-59.113a.905.905 0 0 1-.07-.101c-10.647-17.375-12.991-36.977-6.432-53.78 5.922-15.167 18.144-26.063 34.414-30.682.14-.039.284-.048.426-.026l205.829 31.667c22.19-62.622 35.519-124.967 39.615-185.31 5.018-73.894-4.657-147.817-28.755-219.714-23.278-69.452-58.965-134.102-106.069-192.152-47.105-58.053-103.255-106.579-166.888-144.231-65.876-38.98-136.931-64.537-211.19-75.962A943.366 943.366 0 0 0 85.889 2.1L66.282 290.88c7.833 21.715 26.201 37.273 47.981 40.625 12.352 1.899 24.698-.36 35.705-6.538 16.416-12.611 37.279-17.736 58.758-14.431 45.018 6.926 79.168 49.005 76.126 93.801-1.462 21.529-11.209 40.545-27.444 53.545-16.563 13.261-37.833 18.695-59.895 15.302-21.29-3.275-40.901-14.521-55.229-31.669-10.031-9.58-21.939-15.66-34.438-17.584-21.719-3.345-41.739 6.25-52.298 25.046z" fill="#111"/></svg></g><g transform="translate(558.0 444.0) rotate(0.0 279.6 209.39999999999998) scale(1.20044308199593 1.2002269770214422)"><svg width="465.828" height="348.934" viewBox="0 0 465.828 348.934"><g><path d="m454.867 194.357-10.68 25.247c-8.511 20.12-22.24 39.219-40.27 56.246l10.68-25.247c18.03-17.027 31.759-36.126 40.27-56.246" fill="#b0c3ff"/><path d="M403.918 276.851a1 1 0 0 1-.921-1.39l10.68-25.247c.054-.127.134-.242.234-.337 18.106-17.101 31.576-35.911 40.035-55.909a1 1 0 0 1 1.842.78l-10.68 25.247c-8.568 20.255-22.195 39.292-40.504 56.584a.999.999 0 0 1-.686.272zm11.518-25.665-8.686 20.534c16.34-16.182 28.613-33.826 36.516-52.506l1.283-3.035c-7.742 12.285-17.48 24-29.113 35.007z" fill="#111"/><path d="m425.125 313.487-10.68 25.247-60.36-27.214 10.68-25.247z" fill="#b0c3ff"/><path d="M414.445 339.734a.996.996 0 0 1-.411-.088l-60.36-27.214a1 1 0 0 1-.51-1.301l10.68-25.247a1.002 1.002 0 0 1 1.332-.522l60.36 27.214a1 1 0 0 1 .51 1.301l-10.68 25.247a1.002 1.002 0 0 1-.921.61zm-59.058-28.724 58.536 26.392 9.9-23.404-58.536-26.392z" fill="#111"/><path d="m364.765 286.273-10.68 25.247c-23.51 12.744-50.373 22.771-79.78 29.109C151.875 367.016 31.72 319.664 5.917 234.864c-8.205-26.966-5.881-54.471 5.042-80.294l10.68-25.247c-10.923 25.823-13.247 53.328-5.042 80.294 25.803 84.8 145.958 132.152 268.389 105.765 29.406-6.338 56.269-16.366 79.779-29.109" fill="#b0c3ff"/><path d="M206.053 348.968c-36.18 0-71.227-6.255-102.544-18.596-50.979-20.09-85.979-53.905-98.549-95.217-7.985-26.243-6.229-54.244 5.078-80.974l10.68-25.247a1 1 0 1 1 1.842.78l-.043.103c-11.085 26.263-12.801 53.754-4.963 79.51 25.614 84.177 145.49 131.315 267.221 105.079 28.633-6.171 55.385-15.932 79.514-29.011a1 1 0 0 1 1.397 1.269l-10.68 25.247a1.004 1.004 0 0 1-.444.49c-24.296 13.17-51.228 22.997-80.045 29.207-22.835 4.92-45.873 7.36-68.464 7.36zM13.666 150.739l-1.786 4.222C.757 181.254-.974 208.784 6.874 234.574c25.612 84.177 145.484 131.315 267.221 105.078 28.51-6.144 55.157-15.849 79.206-28.844l9.439-22.317c-23.638 12.499-49.711 21.87-77.544 27.869-59.404 12.803-120.136 8.813-171.007-11.235-50.98-20.09-85.979-53.905-98.55-95.217-5.835-19.178-6.468-39.296-1.973-59.169z" fill="#111"/><path d="M191.545 8.303c122.411-26.382 242.566 20.97 268.369 105.769 14.597 47.972-4.148 97.652-45.316 136.532l10.528 62.883-60.36-27.214c-23.51 12.744-50.373 22.771-79.78 29.109C162.554 341.769 42.4 294.417 16.596 209.617-9.207 124.818 69.114 34.689 191.545 8.303z" fill="#fff"/><g fill="#111"><path d="M216.732 323.722c-36.18 0-71.227-6.255-102.543-18.597-50.98-20.09-85.979-53.905-98.55-95.217-9.81-32.24-5.059-66.181 13.742-98.152C58.696 61.903 119.239 22.863 191.334 7.325c59.396-12.801 120.12-8.81 170.99 11.239 50.979 20.091 85.977 53.906 98.547 95.217 14.152 46.509-2.321 96.483-45.199 137.183l10.439 62.358a1 1 0 0 1-1.397 1.077l-59.909-27.01c-24.182 13.051-50.963 22.798-79.608 28.972-22.836 4.92-45.873 7.361-68.465 7.361zM191.545 8.303l.211.978C120.197 24.703 60.141 63.39 31.105 112.769c-18.509 31.477-23.195 64.866-13.552 96.557C38.365 277.72 121.408 321.662 217.11 321.664c22.085 0 44.84-2.339 67.664-7.259 28.633-6.171 55.385-15.932 79.514-29.011.275-.148.604-.161.888-.032l58.654 26.444-10.219-61.037a1 1 0 0 1 .3-.892c42.593-40.226 59.012-89.619 45.046-135.514C433.343 30.186 313.471-16.953 191.756 9.28z"/><path d="M233.477 250.275c-6.866 0-13.89-1.25-20.836-3.74-10.812-3.876-21.04-10.509-29.636-19.212-9.887 7.895-21.269 12.275-33.378 12.347l-.29.001c-21.91.002-39.711-14.78-45.4-37.731-7.644-30.833 9.968-49.668 26.089-60.039a87.343 87.343 0 0 1 1.553-.977c1.588-6.81 4.481-11.96 7.33-15.656 8.746-11.35 22.629-16.464 35.509-16.504 13.468-10.607 31.584-18.272 49.07-19.993 5.538-.545 11.95-.606 18.728.434 7.571-12.197 15.711-19.875 24.484-23.162 10.106-3.786 21.052-1.525 32.529 6.719 10.282 7.385 15.714 17.783 18.63 29.635 30.71 1.232 45.924 17.38 52.731 28.265 14.344 22.935 13.196 55.809-2.729 78.168-13.367 18.77-33.846 26.09-57.655 20.62-9.857-2.265-16.25-6.273-20.481-11.429-9.239 14.228-23.007 24.544-40.274 29.874-5.144 1.588-10.509 2.38-15.974 2.38zm-48.92-24.229c14.783 14.879 39.163 27.698 64.305 19.939 17.041-5.259 30.579-15.511 39.572-29.665-5.906-8.426-6.883-19.494-7.892-30.933-1.516-17.181-3.083-34.946-20.014-48.372-2.234-1.772-4.869-3.375-7.842-4.803-9.703 10.471-17.885 22.945-23.422 35.438 15.528 6.583 28.312 18.106 35.505 30.279 6.137 10.385 7.211 19.656 2.947 25.435-3.118 4.228-10.534 8.387-28.164 4.18-13.422-3.202-20.51-13.865-19.957-30.026.295-8.647 2.822-18.619 7.105-28.769a70.268 70.268 0 0 0-10.608-3.238 609.708 609.708 0 0 0-1.752 7.251c-5.448 23.151-16.094 41.655-29.783 53.284zm-53.522-82.416c-15.551 10.027-32.504 28.19-25.156 57.828 5.46 22.026 22.503 36.213 43.461 36.213h.276c11.583-.069 22.488-4.25 31.995-11.793-14.037-14.902-20.268-32.509-15.887-45.069a22.686 22.686 0 0 1 3.82-6.845c-3.723-2.219-7.141-5.289-9.935-9.077-7.135-9.672-8.465-21.564-3.944-32.873-7.966 2.693-15.522 6.074-22.32 10.175-3.294 15.462.438 39.647 27.397 75.222a1 1 0 0 1-1.593 1.208c-26.326-34.74-30.834-58.986-28.114-74.989zm159.809 72.615c3.993 5.113 10.135 9.034 19.811 11.257 22.974 5.279 42.711-1.764 55.579-19.831 15.476-21.729 16.595-53.669 2.661-75.947-10.541-16.854-28.095-26.189-50.557-27.268 1.46 6.659 2.188 13.736 2.584 20.97 6.703 4.274 12.447 9.404 17.189 15.363 7.882 9.906 12.676 22.025 13.498 34.127.878 12.905-2.948 23.8-9.304 26.495-3.659 1.553-7.731.135-11.457-3.994-10.743-11.905-11.063-32.178-11.402-53.641-.089-5.649-.179-11.34-.456-16.94-7.604-4.758-15.871-8.195-23.879-10.371a1 1 0 1 1 .524-1.93c8.641 2.347 16.39 5.559 23.207 9.611-.42-6.836-1.166-13.502-2.586-19.766-6.54-.164-13.479.355-20.774 1.577-4.901.821-9.792 2.438-14.59 4.707 19.031 21.72 26.595 55.368 18.818 84.575-2.041 7.67-5.026 14.701-8.866 21.006zm-62.369-46.772c-4.113 9.735-6.584 19.418-6.882 28.113-.364 10.687 2.535 24.222 18.424 28.012 13.107 3.126 22.132 1.943 26.09-3.422 3.709-5.027 2.565-13.711-3.06-23.23-7.003-11.852-19.454-23.074-34.572-29.473zm-57.151 5.474a20.626 20.626 0 0 0-3.711 6.52c-4.148 11.891 1.95 28.755 15.55 43.14 13.415-11.344 23.869-29.518 29.23-52.303a658.845 658.845 0 0 1 1.735-7.194 64.81 64.81 0 0 0-9.365-1.075c-4.717 8.965-11.181 12.16-15.501 13.288-5.823 1.519-12.17.571-17.938-2.376zm82.801-44.261c2.888 1.431 5.45 3.021 7.646 4.762 17.605 13.961 19.283 32.982 20.764 49.764.982 11.135 1.888 21.407 7.037 29.257 3.534-5.955 6.295-12.562 8.206-19.744 7.659-28.769.125-61.926-18.746-83.146-8.829 4.506-17.305 11.18-24.907 19.107zm66.932-2.514c.226 5.161.308 10.384.39 15.573.333 21.077.646 40.985 10.887 52.333 2.202 2.439 5.584 5.024 9.192 3.493 5.494-2.329 8.896-12.641 8.089-24.518-1.451-21.337-13.487-36.803-28.558-46.881zm-148.322 45.251c5.197 2.531 10.843 3.315 16.022 1.964 5.721-1.493 10.374-5.404 13.746-11.404a62.485 62.485 0 0 0-8.478.539c-9.394 1.25-16.59 4.28-21.29 8.901zm-14.542-42.236c-5.03 11.127-4.006 22.979 3.026 32.513 2.717 3.683 6.053 6.644 9.672 8.742 4.264-4.423 11.3-8.362 22.871-9.901a64.091 64.091 0 0 1 9.774-.542c2.187-4.545 3.724-10.114 4.538-16.59 1.054-8.386-.603-15.747-4.661-21.535-14.939.34-30.688 2.712-45.22 7.313zm58.382 32.39a72.216 72.216 0 0 1 10.914 3.347c4.017-9.09 9.414-18.269 15.852-26.711 2.39-3.133 4.866-6.1 7.411-8.885-6.4-2.784-14.18-4.826-22.777-6.069-3.989 11.2-7.79 23.973-11.4 38.318zm-10.854-1.496c3.01.165 5.979.536 8.892 1.092 3.592-14.32 7.345-27.04 11.273-38.198-6.343-.81-13.096-1.191-20.058-1.139 3.785 5.988 5.287 13.424 4.231 21.822-.855 6.808-2.407 12.181-4.338 16.423zM171.91 110.82c-11.571.642-23.63 5.564-31.417 15.669-2.438 3.164-4.904 7.441-6.476 12.987 6.747-3.871 14.408-7.183 22.696-9.855a42.592 42.592 0 0 1 2.264-4.135c3.232-5.213 7.664-10.17 12.933-14.666zm56.757 12.514c8.989 1.317 16.988 3.5 23.528 6.441 8.03-8.489 16.694-15.194 25.437-19.726-10.746-11.409-22.985-16.633-34.293-18.626-5.132 8.502-10.027 19.146-14.672 31.911zm-53.464-12.581c-6.267 5.038-11.253 10.507-14.526 15.788a40.792 40.792 0 0 0-1.3 2.251c12.872-3.878 27.138-6.241 41.751-6.797l.812-.029c-2.957-3.486-6.893-6.298-11.724-8.288-4.465-1.841-9.635-2.847-15.013-2.925zm32.376 11.118c6.649 0 13.025.401 18.994 1.174 4.593-12.765 9.424-23.411 14.514-31.979-6.293-.887-12.236-.811-17.403-.304-17.697 1.742-33.939 9.059-46.04 18.1 4.771.303 9.323 1.312 13.335 2.965 5.717 2.355 10.259 5.783 13.508 10.072 1.036-.019 2.067-.028 3.092-.028zM244.47 89.59c11.521 2.167 23.924 7.632 34.832 19.316l.195.209c5.245-2.53 10.504-4.269 15.654-5.131 7.523-1.259 14.374-1.755 20.614-1.646-2.857-11.23-8.064-21.028-17.702-27.951-10.903-7.83-21.216-10.008-30.662-6.47-8.083 3.028-15.737 10.272-22.931 21.673z"/></g></g></svg></g><g transform="translate(1807.2 2258.4) rotate(0.0 190.19999999999993 192.0) scale(1.203017030091238 1.2034788059233723)"><svg width="316.205" height="319.075" viewBox="0 0 316.205 319.075"><linearGradient id="h" gradientTransform="matrix(.9782 .2079 -.2079 .9782 1261.0021 898.5402)" gradientUnits="userSpaceOnUse" x1="-1388.059" x2="-1076.654" y1="-425.277" y2="-425.277"><stop offset=".325" stop-color="#3658c1"/><stop offset=".706" stop-color="#b0c3ff"/><stop offset=".938" stop-color="#3658c1"/></linearGradient><path d="m313.484 170.21-4.538 28.149c-5.293 32.83-22.765 63.863-51.916 86.722-64.712 50.745-162.478 41.979-218.368-19.58-30.724-33.84-42.4-76.584-35.941-116.646l4.538-28.149C.8 160.769 12.476 203.513 43.2 237.353c55.89 61.559 153.657 70.325 218.368 19.58 29.151-22.86 46.623-53.892 51.916-86.723" fill="url(#h)"/><path d="M159.527 319.005c-44.943 0-89.996-18.014-121.605-52.83C8.169 233.405-5.02 190.586 1.733 148.697l4.539-28.149a1 1 0 0 1 1.974.318c-6.657 41.285 6.353 83.498 35.693 115.815 55.457 61.081 152.808 69.814 217.012 19.465 27.794-21.796 46.097-52.355 51.54-86.055l.006-.04a1 1 0 0 1 1.974.318l-4.539 28.149c-5.516 34.214-24.085 65.235-52.286 87.351-28.41 22.279-63.232 33.136-98.119 33.136zM4.549 143.794l-.842 5.221c-6.656 41.285 6.354 83.498 35.694 115.815 55.455 61.08 152.808 69.814 217.011 19.465 27.805-21.803 46.11-52.379 51.546-86.095l.857-5.318c-8.69 25.191-24.765 47.69-46.63 64.837-65.012 50.979-163.58 42.146-219.727-19.694-24.254-26.715-37.502-60.106-37.909-94.231z" fill="#111"/><path d="M277.552 53.581c55.89 61.559 48.738 152.599-15.984 203.352-64.711 50.745-162.478 41.979-218.368-19.58C-12.699 175.784-5.547 84.744 59.164 33.999c64.722-50.753 162.489-41.987 218.388 19.582z" fill="#b0c3ff"/><g fill="#111"><path d="M164.066 290.855c-44.943 0-89.997-18.014-121.606-52.829-27.436-30.218-40.73-68.323-37.438-107.293C8.264 92.37 27.273 57.736 58.547 33.212c65.017-50.984 163.594-42.149 219.745 19.696 27.43 30.212 40.722 68.31 37.429 107.277-3.242 38.367-22.255 73.005-53.535 97.535-28.411 22.279-63.234 33.135-98.12 33.135zM156.684 2.063c-34.459 0-68.842 10.719-96.902 32.723-30.833 24.178-49.573 58.312-52.767 96.115-3.246 38.411 9.867 75.978 36.925 105.78 55.457 61.081 152.808 69.814 217.012 19.465 30.839-24.183 49.582-58.323 52.777-96.129 3.245-38.407-9.865-75.968-36.917-105.764-31.224-34.391-75.737-52.19-120.128-52.19z"/><path d="M184.362 61.928c-6.658-7.334-21.612-5.798-33.391 3.439s-15.924 22.678-9.266 30.012 21.603 5.788 33.382-3.449c11.779-9.238 15.933-22.669 9.275-30.002"/><path d="M153.805 100.975c-5.233 0-9.832-1.611-12.84-4.924-2.568-2.829-3.734-6.581-3.373-10.851.602-7.117 5.372-14.826 12.762-20.621 12.165-9.539 27.754-11.031 34.749-3.324 2.565 2.826 3.731 6.574 3.371 10.839-.602 7.114-5.375 14.823-12.77 20.622-6.929 5.434-14.97 8.258-21.899 8.259zm18.447-42.699c-6.459 0-14.069 2.706-20.664 7.878-6.961 5.458-11.448 12.641-12.004 19.215-.312 3.702.677 6.931 2.861 9.337 6.303 6.941 20.669 5.341 32.024-3.564 6.966-5.462 11.456-12.646 12.011-19.216.312-3.697-.676-6.922-2.858-9.326-2.644-2.913-6.707-4.324-11.37-4.324zm80.762 79.267c-6.658-7.334-21.603-5.788-33.382 3.449s-15.933 22.668-9.275 30.001c6.658 7.334 21.603 5.788 33.382-3.449s15.933-22.667 9.275-30.001"/><path d="M222.456 176.59c-5.233 0-9.832-1.61-12.84-4.924-2.565-2.826-3.731-6.574-3.371-10.839.602-7.114 5.375-14.823 12.77-20.622 12.163-9.539 27.749-11.035 34.739-3.334 2.565 2.826 3.731 6.574 3.371 10.839-.602 7.114-5.375 14.823-12.77 20.622-6.929 5.433-14.97 8.258-21.899 8.258zm18.461-42.692c-6.458 0-14.069 2.707-20.668 7.882-6.966 5.462-11.456 12.646-12.011 19.216-.312 3.697.676 6.922 2.858 9.326 6.302 6.94 20.665 5.343 32.024-3.564 6.966-5.462 11.456-12.646 12.011-19.216.312-3.697-.676-6.922-2.858-9.326-2.64-2.909-6.698-4.318-11.356-4.318zm-98.826 27.05c-21.765-23.952-52.922-35.762-82.125-33.381-4.241.346-7.289 3.849-6.811 7.807.175 1.505.835 2.863 1.82 3.948 1.604 1.767 4.069 2.811 6.697 2.597 23.831-1.971 50.197 7.754 68.735 28.192l.03.033c17.791 19.596 23.916 44.126 18.986 65.076-.537 2.29.171 4.591 1.706 6.282a8.034 8.034 0 0 0 4.193 2.417c4.16.934 8.274-1.436 9.19-5.306 5.998-25.599-1.54-54.645-22.421-77.665"/><path d="M157.135 245.121c-.67 0-1.351-.073-2.032-.227-1.849-.418-3.479-1.359-4.714-2.721-1.803-1.985-2.528-4.67-1.94-7.182 5.094-21.642-1.917-45.632-18.752-64.175-17.457-19.245-43.47-29.923-67.943-27.9-2.836.235-5.649-.86-7.519-2.922-1.163-1.28-1.88-2.837-2.073-4.504-.254-2.099.352-4.171 1.706-5.83 1.444-1.769 3.638-2.895 6.018-3.089 30.498-2.491 61.508 10.113 82.946 33.705 20.435 22.526 28.903 51.896 22.654 78.565-.888 3.752-4.419 6.28-8.351 6.28zM67.693 140.672c23.218 0 47.06 10.692 63.454 28.767 17.309 19.063 24.493 43.728 19.249 66.01-.444 1.898.093 3.859 1.474 5.38.959 1.057 2.229 1.788 3.673 2.114 3.618.813 7.208-1.232 7.997-4.561 6.098-26.026-2.197-54.723-22.188-76.763-21.024-23.135-51.419-35.497-81.304-33.056-1.868.152-3.512.991-4.631 2.36a5.713 5.713 0 0 0-1.269 4.33c.146 1.253.688 2.426 1.567 3.395 1.456 1.605 3.652 2.455 5.875 2.273a74.735 74.735 0 0 1 6.103-.249z"/></g></svg></g><g transform="translate(2338.7999999999997 1038.0) rotate(13.94263116460492 204.0 310.19999999999993) scale(1.325277723640616 1.3201123499872327)"><svg width="307.86" height="469.96" viewBox="0 0 307.86 469.96"><path d="m78.86 127.72 22.86 19.05-77.86-7.7L1 120.02z" fill="#3658c1"/><path d="M101.72 147.77h-.09l-77.86-7.7a1 1 0 0 1-.54-.23l-22.87-19A1 1 0 0 1 1.1 119l77.9 7.73a.9.9 0 0 1 .54.22l22.86 19a1 1 0 0 1 .29 1.15 1 1 0 0 1-.97.67zm-77.45-9.67 74.31 7.35-20.13-16.76-74.31-7.36z" fill="#111"/><path d="M180.32 86.14c-7.49-6.24-17.83-10.36-30.57-11.62-33-3.27-60.13 16.13-70 49.4l-.92 3.8 22.86 19.05.93-3.8c9.83-33.27 36.94-52.67 70-49.41 12.73 1.26 23.08 5.39 30.56 11.62z" fill="#3658c1"/><path d="M101.72 147.77a1 1 0 0 1-.64-.23l-22.86-19a1 1 0 0 1-.33-1l.92-3.8c10-33.77 37.85-53.45 71-50.16 12.54 1.24 23.29 5.34 31.11 11.85l22.86 19a1 1 0 1 1-1.28 1.53c-7.5-6.25-17.89-10.19-30-11.39-15.93-1.58-30.8 2.17-43 10.82s-21.13 21.72-25.9 37.87l-.9 3.74a1 1 0 0 1-.66.72 1.13 1.13 0 0 1-.32.05zM80 127.35 101.13 145l.55-2.24c10-33.77 37.84-53.44 71-50.16a65.61 65.61 0 0 1 19.61 4.88L179.68 86.9c-7.51-6.25-17.89-10.19-30-11.39-15.93-1.57-30.8 2.17-43 10.82s-21.16 21.73-25.94 37.87z" fill="#111"/><path d="m125.53 305.85 22.86 19.05-76.27-7.55-22.86-19.04z" fill="#3658c1"/><path d="M148.39 325.9h-.1L72 318.35a1 1 0 0 1-.55-.23l-22.83-19.05a1 1 0 0 1-.28-1.15 1 1 0 0 1 1-.61l76.26 7.54a1 1 0 0 1 .55.23L149 324.13a1 1 0 0 1-.64 1.77zm-75.86-9.51 72.72 7.19-20.13-16.77-72.72-7.19z" fill="#111"/><path d="M172.7 2c82.15 8.13 124.65 61.85 107.56 132.08-11.1 45.62-39.82 75.46-86.46 96.7-43.9 19.63-58.17 33.51-65.27 62.68l-3 12.36-76.27-7.54 2.71-13c8.11-49 30.59-74.83 76.22-95.54 42.74-19.75 57.5-33.24 64.38-61.51s-10.07-50.47-42.82-53.71c-33-3.27-60.13 16.13-70 49.4l-.92 3.8L1 120l.92-3.8C21.77 40.66 84.5-6.69 172.7 2z" fill="#fff"/><path d="M125.53 306.85h-.1l-76.27-7.55a1 1 0 0 1-.71-.4 1 1 0 0 1-.17-.8l2.71-13c7.9-47.75 29.43-74.75 76.79-96.24C170.62 169 184.93 155.39 191.6 128c3.14-12.91 1.32-24.65-5.27-33.94C179 83.71 166 77.13 149.66 75.51c-15.93-1.57-30.8 2.17-43 10.82s-21.14 21.73-25.92 37.87l-.91 3.8a1 1 0 0 1-1.07.76L.9 121a1 1 0 0 1-.72-.41 1 1 0 0 1-.15-.82L1 116C21.79 36.65 87.63-7.39 172.8 1c42.53 4.2 76.32 21.15 95.16 47.71 16.61 23.43 21.2 53 13.27 85.6-10.78 44.3-38.43 75.24-87 97.37-43.19 19.31-57.7 33.22-64.71 62l-3 12.36a1 1 0 0 1-.99.81zm-75.07-9.43 74.3 7.35 2.8-11.51c7.19-29.53 21.95-43.74 65.83-63.36 48-21.85 75.27-52.37 85.9-96 7.78-32 3.3-61-13-84C247.83 23.82 214.55 7.18 172.6 3 88.49-5.29 23.46 38.18 2.89 116.47l-.65 2.67 75.85 7.5.72-3c10-33.77 37.85-53.45 71-50.16 16.9 1.67 30.43 8.56 38.11 19.39 6.94 9.77 8.86 22.07 5.58 35.56-6.84 28.12-21.4 42.07-64.93 62.19C82 211.84 60.74 238.41 53 285.45z" fill="#111"/><path d="m273.26 50.37-22.86-19c28.76 24 40.18 60.37 29.86 102.79-11.1 45.62-39.82 75.46-86.46 96.7-43.9 19.63-58.17 33.51-65.27 62.68l-3 12.36 22.86 19 3-12.36c7.1-29.18 21.37-43.05 65.26-62.68 46.64-21.25 75.36-51.08 86.46-96.7 10.34-42.43-1.11-78.83-29.85-102.79z" fill="#b0c3ff"/><path d="M148.39 325.9a1 1 0 0 1-.64-.23l-22.86-19.05a1 1 0 0 1-.34-1l3-12.35c7.19-29.53 21.95-43.74 65.83-63.36 48-21.85 75.27-52.37 85.9-96 10.07-41.38-.42-77.53-29.53-101.78a1 1 0 0 1-.13-1.41 1 1 0 0 1 1.41-.13L273.9 49.6c29.73 24.77 40.46 61.63 30.2 103.79-10.78 44.31-38.44 75.25-87 97.38-43.18 19.31-57.7 33.22-64.7 62l-3 12.35a1 1 0 0 1-.66.72 1.06 1.06 0 0 1-.35.06zm-21.74-20.42 21.15 17.62 2.63-10.79c7.18-29.53 21.95-43.75 65.82-63.36 48-21.86 75.28-52.37 85.9-96 10.07-41.38-.42-77.53-29.53-101.78L265 44.82c18.87 23.73 24.63 54.84 16.19 89.53-10.78 44.3-38.43 75.24-87 97.37-43.19 19.31-57.7 33.22-64.71 62z" fill="#111"/><path d="m111.66 369.2-19.63 80.71-76.26-7.54 19.64-80.71z" fill="#fff"/><path d="M92 450.91h-.1l-76.25-7.54A1 1 0 0 1 15 443a1 1 0 0 1-.16-.81l19.64-80.72a1 1 0 0 1 1.07-.75l76.25 7.54a1 1 0 0 1 .72.41 1 1 0 0 1 .16.82L93 450.15a1 1 0 0 1-1 .76zm-75-9.42 74.24 7.34 19.16-78.74-74.24-7.35z" fill="#111"/><path d="m111.66 369.2 22.87 19.05-19.64 80.71-22.86-19.05z" fill="#b0c3ff"/><path d="M114.89 470a1 1 0 0 1-.64-.23l-22.86-19.09a1 1 0 0 1-.34-1L110.69 369a1 1 0 0 1 .66-.72 1 1 0 0 1 1 .18l22.87 19.05a1 1 0 0 1 .33 1l-19.69 80.69a1 1 0 0 1-.66.71 1.06 1.06 0 0 1-.31.09zm-21.75-20.45 21.16 17.62 19.11-78.55L112.26 371z" fill="#111"/><path d="m92.03 449.91 22.86 19.05-76.25-7.54-22.87-19.05z" fill="#3658c1"/><path d="M114.89 470h-.1l-76.25-7.55a1 1 0 0 1-.54-.22l-22.87-19.09a1 1 0 0 1-.28-1.15 1 1 0 0 1 1-.61l76.25 7.54a1 1 0 0 1 .54.23l22.87 19a1 1 0 0 1-.64 1.77zM39 460.45l72.71 7.2-20.09-16.77-72.7-7.19z" fill="#111"/></svg></g></svg>