<svg xmlns="http://www.w3.org/2000/svg" version="1.1" xmlns:xlink="http://www.w3.org/1999/xlink" viewBox="0 0 13.146461693080203 13.760227062053128"><g transform="matrix(1,0,0,1,1.1207619744697892,10.814715087583338)"><g clip-path="url(#SvgjsClipPath1001)"><g clip-path="url(#SvgjsClipPath1000969e335e-eda6-42c2-a281-06ce8f2f5b27)"><path d=" M 2.6690527234701946 -0.25 C 1.9998864551125393 -0.250796305787933 1.457625800478311 -0.7930778125911484 1.4568552264118733 -1.4622441110747388 C 1.4577286186134233 -2.131322452371742 1.9999742265989693 -2.6734638024053385 2.669052723470206 -2.6742085380509435 C 3.3380508331677374 -2.673361037554537 3.880169649949996 -2.131242220772278 3.8810171504464037 -1.4622441110747388 C 3.8802724689941566 -0.7931580406354897 3.338138604268141 -0.25089906809443185 2.6690527234703025 -0.25 Z M 2.6690527234701946 -2.281112537562854 C 2.216991385057391 -2.280624505467851 1.850630565218783 -1.9143053909989023 1.8500910689492371 -1.4622441110747388 C 1.8505791011700254 -1.010131284277799 2.21693995515516 -0.6437287249190646 2.6690527234701547 -0.6431892285209351 C 3.121147287350431 -0.6437544050819479 3.487479782770824 -1.0101494572809244 3.487967763974733 -1.4622441110747406 C 3.4874283178732743 -1.9142872159325615 3.121095858302846 -2.280598823245562 2.6690527234702683 -2.2811125375628523 Z" fill="#3361e1" transform="matrix(1,0,0,1,0,0)" fill-rule="nonzero"></path></g><g clip-path="url(#SvgjsClipPath1000969e335e-eda6-42c2-a281-06ce8f2f5b27)"><path d=" M 7.486844390782718 -2.7614233627768074 C 6.550228958812226 -2.7614233627768074 5.562664406892306 -3.500488593150182 4.987820356374208 -4.348630621951414 C 4.958552334639762 -4.391791840847786 4.94763437954079 -4.444814235873201 4.957469593130481 -4.496027285836211 C 4.967304806720166 -4.547240335799223 4.99708706354911 -4.592446455915303 5.040261124849142 -4.621695530152437 C 5.083420676753101 -4.6509566212173645 5.136439797011251 -4.661865934285844 5.187645741069156 -4.652021663667915 C 5.238851685127068 -4.6421773930499866 5.284046273621526 -4.612386632814793 5.313279419033741 -4.569208147661085 C 5.889475276028077 -3.71910833017012 6.970221246775904 -2.9517017778120724 7.837801320425176 -3.203184396409635 C 8.566984379317056 -3.4147188029334057 8.994201839826163 -4.357860197203004 9.040722628215482 -5.858878140013035 C 9.044195842217349 -5.96737734208668 9.13484743268074 -6.052586083433219 9.243353757602623 -6.049343011113987 C 9.351872972841512 -6.045971188004377 9.437119113428242 -5.955278476378934 9.433772014687154 -5.846758495743272 C 9.366834287104927 -3.686664974740295 8.588520054904095 -3.0115075608817046 7.947344259017258 -2.825564249373703 C 7.797650567552146 -2.78251136405129 7.642605408447943 -2.7609158443704116 7.486844390782723 -2.761423362776809 Z" fill="#3361e1" transform="matrix(1,0,0,1,0,0)" fill-rule="nonzero"></path></g><g clip-path="url(#SvgjsClipPath1000969e335e-eda6-42c2-a281-06ce8f2f5b27)"><path d=" M 6.7685223977172075 -0.25950925935012137 C 6.406378104133434 -0.25950925935012137 6.001535371506959 -0.40042343099431577 5.58918778223652 -0.6814127219871065 C 4.886388256639584 -1.1600920566262847 4.56367942094896 -2.119408514594374 4.304179191526783 -2.8902178901512405 L 4.265909084044191 -3.003769634155625 C 4.136695030521954 -3.385585042669552 3.700760748941901 -4.036130255857242 3.250655806369502 -4.213683044409256 C 3.1059904808942385 -4.2792218235522785 2.9390372233908133 -4.273550997440511 2.799152443304445 -4.19834703300637 C 2.2854659823322265 -3.922392055787168 2.2557262398548925 -3.0055875807960897 2.486419007128161 -2.522107002465429 C 2.533169111113944 -2.424098721004718 2.491617680874967 -2.306748800244403 2.3936105004316395 -2.2599963881236134 C 2.2955839039883728 -2.213363724308625 2.178309482619488 -2.2549092778150843 2.13149988608982 -2.352851508836559 C 1.8320980586102762 -2.9803227838952795 1.8709275342899376 -4.146092720597121 2.613069289747167 -4.544735789039449 C 2.8549289179815256 -4.674357203956313 3.1425613325416064 -4.687149250055146 3.394972801212507 -4.5795098452903815 C 3.9875767919874545 -4.345740552933242 4.487232434016612 -3.5762363698361925 4.6384016892736755 -3.129813934561148 L 4.676858252821962 -3.015609594326852 C 4.917479805593162 -2.3005505824108914 5.216928247089131 -1.4106423948954028 5.8105111322089416 -1.0065454865316816 C 6.043301530221215 -0.848057830696332 6.842219157680648 -0.3712896707304605 7.350684848813589 -0.8928072864616077 C 7.785220709900979 -1.3384372834574734 7.805497807044617 -1.7748843192181738 7.69096716869537 -2.4244040240445752 C 7.672090044858378 -2.531331216982421 7.743461970400707 -2.6333179421652773 7.850387104859166 -2.652206722299681 C 7.901745138741748 -2.6613490687192094 7.954630163848569 -2.6496773462090744 7.997369431417587 -2.6197677298624322 C 8.04010869898661 -2.589858113515789 8.069188299822983 -2.5441696926402564 8.07818980311426 -2.4927867861358877 C 8.20870904909631 -1.7518569951056264 8.179948200963839 -1.1799030136057027 7.632233508003441 -0.6182973437514985 C 7.406549994348678 -0.3840894408232529 7.09372630008051 -0.25414157667612436 6.768522397717214 -0.25950925935012137 Z" fill="#3361e1" transform="matrix(1,0,0,1,0,0)" fill-rule="nonzero"></path></g><g clip-path="url(#SvgjsClipPath1000969e335e-eda6-42c2-a281-06ce8f2f5b27)"><path d=" M 4.779595545016409 -4.695485518148721 C 4.720500706448233 -4.695396865535819 4.664510685041729 -4.721936478129118 4.62716771131594 -4.7677372436030705 C 3.745556818723596 -5.847830618120982 3.3517616079891748 -6.977241622013539 3.5739240102572016 -7.78907133202191 C 3.710176780259179 -8.287281939541973 4.0719947757279975 -8.65702431780256 4.620175608852625 -8.858396868746299 C 4.669094718407491 -8.876418730080813 4.72317004940701 -8.874264793259746 4.770500749927224 -8.85240909482965 C 4.817831450447437 -8.830553396399555 4.854538662159749 -8.790787060450109 4.872543893762211 -8.741861827690894 C 4.91001749127343 -8.6399934155923 4.85785444356212 -8.527029119468686 4.7560088527068025 -8.489493542781311 C 4.326134393261627 -8.331565255143028 4.056099396128047 -8.061064117845223 3.9534087179500244 -7.685494987531867 C 3.7675586344748697 -7.006328768260969 4.142568396591155 -5.983710475991587 4.9319767647004715 -5.016609477280996 C 4.96495538450203 -4.976214349893091 4.98053597907405 -4.924372788184478 4.975290858185289 -4.872489800726511 C 4.970045737296534 -4.820606813268547 4.944404573064868 -4.772932573427199 4.904008354847164 -4.739955289815465 C 4.86894309121854 -4.711163752409538 4.824966501455515 -4.695444881433917 4.779595545016404 -4.695485518148721 Z" fill="#3361e1" transform="matrix(1,0,0,1,0,0)" fill-rule="nonzero"></path></g><g clip-path="url(#SvgjsClipPath1000969e335e-eda6-42c2-a281-06ce8f2f5b27)"><path d=" M 9.246616738752174 -6.253652245092325 C 9.193426318625821 -6.248512611831432 9.141118136735997 -6.269906658224368 9.10677468948569 -6.310847643242317 C 9.018208058283582 -6.4172674427341105 9.055872183552687 -6.592116618333639 9.052236290271761 -6.718580444886964 C 9.046324047542528 -6.9488787966294705 9.02608552555256 -7.178586021215644 8.99163806892295 -7.406370257195986 C 8.932438268066807 -7.791075734728061 8.82974758988879 -8.176993176687139 8.644923014774916 -8.521563986079759 C 8.544444644264587 -8.717527943731355 8.407462413363984 -8.892497508472607 8.241338860591842 -9.037068393692445 C 7.962820112469418 -9.269672335639035 7.626639826032789 -9.347098216916246 7.2421674185828016 -9.267528090883616 C 7.135845756661858 -9.245581439135531 7.031839369460299 -9.31389690605994 7.009749932701903 -9.420188994666194 C 6.9877782247240985 -9.526530767085093 7.056130772523738 -9.630561842582354 7.162457450500898 -9.652606480547094 C 7.663231828924192 -9.756136211020713 8.123498627076614 -9.647945078904874 8.493380847386465 -9.338894150025943 C 8.769195982556402 -9.108527680867619 8.964182413250303 -8.793510157886649 9.103371866286874 -8.465487324323897 C 9.261165016892125 -8.079757300233332 9.363323824933357 -7.673554794331496 9.406782499178732 -7.259069965301931 C 9.434003332772614 -7.02446152866959 9.447808004181153 -6.788490358549712 9.448129131745187 -6.552308248309112 C 9.448408815843713 -6.45670290062726 9.441976081577462 -6.341985806212319 9.35364252045746 -6.288426301343257 C 9.321223355200807 -6.268525374430505 9.284541902108733 -6.256607097424112 9.246616738752174 -6.253652245092325 Z" fill="#3361e1" transform="matrix(1,0,0,1,0,0)" fill-rule="nonzero"></path></g><g clip-path="url(#SvgjsClipPath1000969e335e-eda6-42c2-a281-06ce8f2f5b27)"><path d=" M 6.2698456500329245 -9.163392378196503 C 6.187610075746268 -9.163427567997058 6.114074790142718 -9.21461407653475 6.0854872150832655 -9.291720765406714 C 6.067352515849477 -9.340608501514712 6.069389650791026 -9.394699144408744 6.091150134440044 -9.442084367943366 C 6.112910618089061 -9.48946959147799 6.152610445957791 -9.526264580738117 6.201509501958036 -9.544368734414833 L 6.571438336284313 -9.681553784745253 C 6.620324787575408 -9.699735133384543 6.6744343436751095 -9.697732282323875 6.721842906323223 -9.675986598940275 C 6.769251468971337 -9.654240915556677 6.806068099332968 -9.614537122255616 6.824179533325274 -9.56562472590334 C 6.842315795863572 -9.51673054297479 6.840279909110146 -9.462633433001185 6.8185199916913355 -9.415240700045228 C 6.796760074272524 -9.367847967089274 6.757059677024781 -9.331044154776684 6.708157246450509 -9.312930142878795 L 6.338181798107813 -9.175745092548377 C 6.316318251568776 -9.167598919514303 6.293177479130293 -9.163415901304072 6.2698456500329245 -9.163392378196503 Z" fill="#3361e1" transform="matrix(1,0,0,1,0,0)" fill-rule="nonzero"></path></g><g clip-path="url(#SvgjsClipPath1000969e335e-eda6-42c2-a281-06ce8f2f5b27)"><path d=" M 6.452805664489904 -8.736314759736658 C 6.370585327687257 -8.736308376988873 6.297043064866934 -8.787462552720534 6.268447229540256 -8.864549918914026 C 6.250307029729928 -8.913444586758828 6.252335118891001 -8.967543111771118 6.27408526191732 -9.014942338253697 C 6.295835404943628 -9.062341564736279 6.335525594313425 -9.099158034175106 6.384422902398596 -9.117291115954988 L 6.754444964757716 -9.254616008334677 C 6.803318244792368 -9.272811111589014 6.85742164943804 -9.270819804371882 6.904825145388551 -9.249081178484968 C 6.95222864133905 -9.227342552598053 6.989039060707926 -9.187641964131705 7.007139547782258 -9.138733563509184 C 7.044922439889358 -9.036915570013136 6.993022299949001 -8.923745301055924 6.891210488940343 -8.885945752451802 L 6.521188426581223 -8.748667474088533 C 6.499313123264404 -8.74050519891236 6.476154145864085 -8.736321743553749 6.452805664489904 -8.736314759736658 Z" fill="#3361e1" transform="matrix(1,0,0,1,0,0)" fill-rule="nonzero"></path></g><g clip-path="url(#SvgjsClipPath1000969e335e-eda6-42c2-a281-06ce8f2f5b27)"><path d=" M 6.370625153537642 -8.720139696038165 C 6.290605590190554 -8.720139742121255 6.218560514462328 -8.768612126149197 6.188410963343407 -8.842734559228452 L 6.0307623598036555 -9.229863965614506 C 6.0110701366148405 -9.278176856912005 6.011381981901494 -9.332334629829386 6.031629260746493 -9.380417545912074 C 6.051876539591499 -9.42850046199476 6.090399826599056 -9.466567744180214 6.13872042183738 -9.486241055936395 C 6.18703453558376 -9.50598228045484 6.241217882260651 -9.50568941957125 6.289315776865836 -9.485427088334845 C 6.337413671471027 -9.46516475709844 6.375473334296643 -9.42659815379707 6.395097512159274 -9.378236379886248 L 6.552699501682601 -8.991013745467347 C 6.572404617603619 -8.942702012058236 6.572099166535343 -8.888539078041362 6.5518504146815575 -8.840452663880834 C 6.531601662827783 -8.792366249720303 6.493070215748765 -8.754299935114496 6.44474143964887 -8.734636655145458 C 6.421208952904904 -8.72504683270141 6.396036614619278 -8.720123186659382 6.370625153537642 -8.720139696038169 Z" fill="#3361e1" transform="matrix(1,0,0,1,0,0)" fill-rule="nonzero"></path></g><g clip-path="url(#SvgjsClipPath1000969e335e-eda6-42c2-a281-06ce8f2f5b27)"><path d=" M 5.8443062941150075 -8.782369407961756 L 5.701667403863197 -9.189402999360073 C 5.670114699040083 -9.279127865287728 5.578788456870362 -9.333334409027172 5.48491222750014 -9.31805768468524 C 5.4447398415146315 -9.329170586040886 5.402061200966255 -9.32709547602954 5.36315641660546 -9.312137704599623 L 4.983345410797687 -9.16562985098477 C 4.934692599578591 -9.146869697231603 4.895487232820978 -9.109547119023556 4.874357250124585 -9.061875709986136 C 4.853227267428192 -9.01420430094872 4.8519042422045855 -8.960090668369189 4.870679333105311 -8.911443619434724 C 4.899947390367654 -8.835603627807895 4.972860506209667 -8.785587008708953 5.054152101742946 -8.785585775094887 C 5.078354828493417 -8.785627536006103 5.102342450830415 -8.79013114099032 5.12491217867179 -8.798870769775204 L 5.386463424816542 -8.899790115329186 L 5.414758132784794 -8.819101252902424 L 5.133442543677049 -8.710537208655209 C 5.084789732457953 -8.69177705490204 5.04558436570034 -8.654454476693996 5.024454383003942 -8.606783067656576 C 5.003324400307554 -8.559111658619157 5.002001375083948 -8.504998026039628 5.020776465984674 -8.456350977105163 C 5.050044523247015 -8.380510985478331 5.122957639089024 -8.33049436637939 5.204249234622308 -8.330493132765326 C 5.228451438700326 -8.330494309540713 5.25244363746511 -8.334982968598156 5.275009311551154 -8.343731513429221 L 5.654773703342507 -8.490285981060497 C 5.678375501793338 -8.499424286726441 5.699971432119387 -8.513072154718413 5.718355221742338 -8.5304672632164 C 5.720173168382801 -8.530980017397047 5.7219445010068455 -8.531213087479156 5.723762447647308 -8.531819069692645 C 5.826194626501044 -8.567767048388541 5.880142724991872 -8.679898150240117 5.8443062941150075 -8.782369407961752 Z" fill="#3361e1" transform="matrix(1,0,0,1,0,0)" fill-rule="nonzero"></path></g><g clip-path="url(#SvgjsClipPath1000969e335e-eda6-42c2-a281-06ce8f2f5b27)"><path d=" M 3.0717978253576685 -1.24665428512224 C 3.057720044644869 -1.246684341619284 3.0437350398567493 -1.2489338980700158 3.0303579647583634 -1.2533200894706091 C 2.9968969155721785 -1.264287919396418 2.9691665107085408 -1.2881044051698805 2.9532722001692333 -1.3195258309555165 C 2.9373778896299196 -1.3509472567411542 2.9346228571594954 -1.3873973616050037 2.9456136829028927 -1.4208508644918574 C 2.967867036045339 -1.5002167116224765 2.949459059546605 -1.5854517497232585 2.896435895577487 -1.6485603347141176 C 2.7630265805772662 -1.7794058788111249 2.6484493282116013 -1.720392534020669 2.610831816958915 -1.700861261139785 C 2.579540677862517 -1.6846922902089538 2.543104084065443 -1.6816304249934078 2.5095533808084878 -1.6923505610875011 C 2.4760026775515325 -1.70307069718159 2.44809215216705 -1.7266927834335153 2.4319738359470815 -1.7580100452733545 C 2.398342590827575 -1.823156069532697 2.4238864010875774 -1.9032309061075683 2.4890293920477937 -1.9368680262851878 C 2.6941310643053207 -2.0426352295470735 2.910559942553409 -2.0067890509184316 3.0823792070855025 -1.838186153519473 C 3.2067450657670515 -1.7037433767912225 3.250717502341826 -1.5135448577841313 3.197981967812467 -1.3381575993589436 C 3.18008797116935 -1.2836119149935339 3.129203603633751 -1.2467127596657246 3.07179782535768 -1.2466542851222417 Z" fill="#3361e1" transform="matrix(1,0,0,1,0,0)" fill-rule="nonzero"></path></g><g clip-path="url(#SvgjsClipPath1000969e335e-eda6-42c2-a281-06ce8f2f5b27)"><path d=" M 2.7627935104951598 -0.9583465935511697 C 2.693963117123798 -0.9653101609544645 2.6387574192795142 -1.0183230192328043 2.629011283363564 -1.0868148228106467 C 2.622345479015193 -1.184284731149388 2.7397195723661962 -1.183538906886632 2.8014831441255637 -1.2136515614953485 C 2.84781747644919 -1.2363525874929415 2.869446380069077 -1.2566762986530051 2.9226795868231807 -1.2303859933909056 C 2.9618749101592776 -1.211626881116871 2.9920437718198607 -1.1781059237162292 3.006584816383068 -1.137157960546583 C 3.0421979249295976 -1.0176862364565817 2.8541569826825985 -0.9616561887171446 2.7679210523016042 -0.9585330496168591 C 2.7661807956885083 -0.958408745573065 2.764471615086354 -0.9583465935511697 2.7627935104951598 -0.9583465935511697 Z" fill="#3361e1" transform="matrix(1,0,0,1,0,0)" fill-rule="nonzero"></path></g></g><g><path d=" M 1.1025 0.9719999999999999 Q 1.1025 0.9809999999999999 1.098 0.9809999999999999 Q 1.0455 0.9809999999999999 1.014 0.9794999999999999 L 0.8985 0.9779999999999999 L 0.7635000000000001 0.9794999999999999 Q 0.7365 0.9809999999999999 0.6900000000000001 0.9809999999999999 Q 0.6855 0.9809999999999999 0.6855 0.9719999999999999 Q 0.6855 0.9629999999999999 0.6900000000000001 0.9629999999999999 Q 0.7455 0.9629999999999999 0.771 0.9554999999999999 Q 0.7965 0.9479999999999998 0.8055 0.9269999999999998 Q 0.8145 0.9059999999999999 0.8145 0.8594999999999999 L 0.8145 0.5144999999999998 L 0.33 0.5144999999999998 L 0.33 0.8594999999999999 Q 0.33 0.9044999999999999 0.339 0.9262499999999999 Q 0.34800000000000003 0.9479999999999998 0.3735 0.9554999999999999 Q 0.399 0.9629999999999999 0.4545 0.9629999999999999 Q 0.4575 0.9629999999999999 0.4575 0.9719999999999999 Q 0.4575 0.9809999999999999 0.4545 0.9809999999999999 Q 0.402 0.9809999999999999 0.3705 0.9794999999999999 L 0.24 0.9779999999999999 L 0.1275 0.9794999999999999 Q 0.0975 0.9809999999999999 0.045 0.9809999999999999 Q 0.042 0.9809999999999999 0.042 0.9719999999999999 Q 0.042 0.9629999999999999 0.045 0.9629999999999999 Q 0.0975 0.9629999999999999 0.1215 0.9554999999999999 Q 0.1455 0.9479999999999998 0.1545 0.9262499999999999 Q 0.1635 0.9044999999999999 0.1635 0.8594999999999999 L 0.1635 0.1649999999999998 Q 0.1635 0.11999999999999988 0.1545 0.09899999999999987 Q 0.1455 0.07799999999999985 0.12225 0.06974999999999987 Q 0.099 0.06149999999999989 0.048 0.06149999999999989 Q 0.043500000000000004 0.06149999999999989 0.043500000000000004 0.05249999999999988 Q 0.043500000000000004 0.04349999999999987 0.048 0.04349999999999987 L 0.129 0.04499999999999982 Q 0.198 0.04799999999999982 0.24 0.04799999999999982 Q 0.297 0.04799999999999982 0.372 0.04499999999999982 L 0.4545 0.04349999999999987 Q 0.4575 0.04349999999999987 0.4575 0.05249999999999988 Q 0.4575 0.06149999999999989 0.4545 0.06149999999999989 Q 0.4005 0.06149999999999989 0.375 0.0704999999999999 Q 0.34950000000000003 0.0794999999999999 0.33975 0.10124999999999984 Q 0.33 0.12299999999999989 0.33 0.16799999999999982 L 0.33 0.4724999999999998 L 0.8145 0.4724999999999998 L 0.8145 0.16799999999999982 Q 0.8145 0.12299999999999989 0.8055 0.10124999999999984 Q 0.7965 0.0794999999999999 0.771 0.0704999999999999 Q 0.7455 0.06149999999999989 0.6900000000000001 0.06149999999999989 Q 0.6855 0.06149999999999989 0.6855 0.05249999999999988 Q 0.6855 0.04349999999999987 0.6900000000000001 0.04349999999999987 L 0.7635000000000001 0.04499999999999982 Q 0.8385 0.04799999999999982 0.8985 0.04799999999999982 Q 0.9390000000000001 0.04799999999999982 1.014 0.04499999999999982 L 1.098 0.04349999999999987 Q 1.1025 0.04349999999999987 1.1025 0.05249999999999988 Q 1.1025 0.06149999999999989 1.098 0.06149999999999989 Q 1.047 0.06149999999999989 1.02225 0.06974999999999987 Q 0.9975 0.07799999999999985 0.9892500000000001 0.09899999999999987 Q 0.981 0.11999999999999988 0.981 0.1649999999999998 L 0.981 0.8594999999999999 Q 0.981 0.9044999999999999 0.9892500000000001 0.9262499999999999 Q 0.9975 0.9479999999999998 1.0215 0.9554999999999999 Q 1.0455 0.9629999999999999 1.098 0.9629999999999999 Q 1.1025 0.9629999999999999 1.1025 0.9719999999999999 M 1.8959655761718752 0.7394999999999998 Q 1.9004655761718752 0.7394999999999998 1.9042155761718753 0.7417499999999999 Q 1.9079655761718752 0.7439999999999999 1.9079655761718752 0.7454999999999998 Q 1.8929655761718753 0.8624999999999998 1.8929655761718753 0.9584999999999999 Q 1.8929655761718753 0.9704999999999999 1.8884655761718752 0.9757499999999999 Q 1.8839655761718752 0.9809999999999999 1.8704655761718754 0.9809999999999999 L 1.207465576171875 0.9809999999999999 Q 1.2029655761718752 0.9809999999999999 1.2029655761718752 0.9719999999999999 Q 1.2029655761718752 0.9629999999999999 1.207465576171875 0.9629999999999999 Q 1.2554655761718752 0.9629999999999999 1.2772155761718753 0.9554999999999999 Q 1.2989655761718752 0.9479999999999998 1.3064655761718753 0.9262499999999999 Q 1.3139655761718751 0.9044999999999999 1.3139655761718751 0.8594999999999999 L 1.3139655761718751 0.1649999999999998 Q 1.3139655761718751 0.11999999999999988 1.3064655761718753 0.09899999999999987 Q 1.2989655761718752 0.07799999999999985 1.2764655761718753 0.06974999999999987 Q 1.2539655761718753 0.06149999999999989 1.207465576171875 0.06149999999999989 Q 1.2029655761718752 0.06149999999999989 1.2029655761718752 0.05249999999999988 Q 1.2029655761718752 0.04349999999999987 1.207465576171875 0.04349999999999987 L 1.8434655761718752 0.04349999999999987 Q 1.8584655761718754 0.04349999999999987 1.8584655761718754 0.05699999999999983 L 1.8614655761718752 0.25649999999999984 Q 1.8614655761718752 0.25949999999999984 1.8532155761718752 0.2609999999999999 Q 1.8449655761718753 0.26249999999999984 1.8434655761718752 0.2579999999999999 Q 1.8194655761718752 0.17099999999999982 1.7624655761718753 0.1289999999999999 Q 1.7054655761718753 0.08699999999999986 1.6124655761718754 0.08699999999999986 L 1.5674655761718752 0.08699999999999986 Q 1.5224655761718753 0.08699999999999986 1.5014655761718751 0.10649999999999982 Q 1.4804655761718752 0.1259999999999999 1.4804655761718752 0.16649999999999987 L 1.4804655761718752 0.4724999999999998 L 1.6049655761718753 0.4724999999999998 Q 1.6919655761718753 0.4724999999999998 1.7384655761718752 0.4424999999999999 Q 1.7849655761718752 0.41249999999999987 1.7849655761718752 0.3584999999999998 Q 1.7849655761718752 0.35399999999999987 1.793215576171875 0.35399999999999987 Q 1.8014655761718752 0.35399999999999987 1.8014655761718752 0.3584999999999998 L 1.7999655761718754 0.4934999999999999 L 1.8014655761718752 0.5654999999999999 Q 1.804465576171875 0.6164999999999998 1.804465576171875 0.6464999999999999 Q 1.804465576171875 0.6494999999999999 1.7954655761718752 0.6494999999999999 Q 1.7864655761718753 0.6494999999999999 1.7864655761718753 0.6464999999999999 Q 1.7864655761718753 0.5849999999999999 1.7392155761718753 0.5497499999999998 Q 1.6919655761718753 0.5144999999999998 1.6034655761718752 0.5144999999999998 L 1.4804655761718752 0.5144999999999998 L 1.4804655761718752 0.8534999999999999 Q 1.4804655761718752 0.8969999999999999 1.4969655761718752 0.9179999999999999 Q 1.5134655761718752 0.9389999999999998 1.5494655761718752 0.9389999999999998 L 1.5989655761718753 0.9389999999999998 Q 1.7159655761718753 0.9389999999999998 1.7864655761718753 0.8909999999999999 Q 1.8569655761718753 0.8429999999999999 1.8899655761718752 0.7424999999999998 Q 1.8899655761718752 0.7394999999999998 1.8959655761718752 0.7394999999999998 M 3.056968505859375 0.9719999999999999 Q 3.056968505859375 0.9809999999999999 3.0494685058593753 0.9809999999999999 Q 3.0194685058593755 0.9809999999999999 2.9564685058593754 0.9779999999999999 Q 2.890468505859375 0.9749999999999999 2.8619685058593753 0.9749999999999999 Q 2.8244685058593753 0.9749999999999999 2.770468505859375 0.9779999999999999 Q 2.7194685058593753 0.9809999999999999 2.6894685058593755 0.9809999999999999 Q 2.6834685058593752 0.9809999999999999 2.6834685058593752 0.9719999999999999 Q 2.6834685058593752 0.9629999999999999 2.6894685058593755 0.9629999999999999 Q 2.728468505859375 0.9629999999999999 2.7457185058593754 0.9547499999999999 Q 2.762968505859375 0.9464999999999999 2.762968505859375 0.9254999999999999 Q 2.762968505859375 0.8999999999999999 2.7329685058593753 0.8399999999999999 L 2.576968505859375 0.5324999999999999 L 2.3099685058593753 0.5324999999999999 L 2.2034685058593753 0.7679999999999999 Q 2.1839685058593754 0.8114999999999999 2.1839685058593754 0.8489999999999999 Q 2.1839685058593754 0.9029999999999999 2.222218505859375 0.9329999999999998 Q 2.260468505859375 0.9629999999999999 2.3249685058593754 0.9629999999999999 Q 2.3324685058593753 0.9629999999999999 2.3324685058593753 0.9719999999999999 Q 2.3324685058593753 0.9809999999999999 2.3249685058593754 0.9809999999999999 Q 2.2979685058593753 0.9809999999999999 2.246968505859375 0.9779999999999999 Q 2.189968505859375 0.9749999999999999 2.1479685058593754 0.9749999999999999 Q 2.107468505859375 0.9749999999999999 2.0504685058593752 0.9779999999999999 Q 1.9994685058593753 0.9809999999999999 1.9679685058593752 0.9809999999999999 Q 1.9619685058593752 0.9809999999999999 1.9619685058593752 0.9719999999999999 Q 1.9619685058593752 0.9629999999999999 1.9679685058593752 0.9629999999999999 Q 2.009968505859375 0.9629999999999999 2.0384685058593752 0.9457499999999999 Q 2.0669685058593754 0.9284999999999999 2.095468505859375 0.8842499999999999 Q 2.1239685058593754 0.8399999999999999 2.162968505859375 0.7529999999999999 L 2.488468505859375 0.03749999999999987 Q 2.491468505859375 0.03299999999999981 2.5019685058593755 0.03299999999999981 Q 2.513968505859375 0.03299999999999981 2.515468505859375 0.03749999999999987 L 2.890468505859375 0.7754999999999999 Q 2.9429685058593753 0.8819999999999999 2.9774685058593753 0.9224999999999999 Q 3.0119685058593753 0.9629999999999999 3.0494685058593753 0.9629999999999999 Q 3.056968505859375 0.9629999999999999 3.056968505859375 0.9719999999999999 M 2.329468505859375 0.4904999999999999 L 2.5559685058593753 0.4904999999999999 L 2.435968505859375 0.25349999999999984 L 2.329468505859375 0.4904999999999999 M 3.3674736328125 0.8534999999999999 Q 3.3674736328125 0.8924999999999998 3.3734736328125 0.9097499999999998 Q 3.3794736328125 0.9269999999999998 3.3967236328125 0.9329999999999998 Q 3.4139736328125 0.9389999999999998 3.4529736328125002 0.9389999999999998 L 3.5039736328125 0.9389999999999998 Q 3.6209736328125 0.9389999999999998 3.7064736328125 0.8767499999999999 Q 3.7919736328124998 0.8144999999999999 3.8204736328125 0.7079999999999999 Q 3.8204736328125 0.7049999999999998 3.8264736328125 0.7049999999999998 Q 3.8294736328125 0.7049999999999998 3.8332236328125 0.7072499999999999 Q 3.8369736328125 0.7094999999999998 3.8369736328125 0.7109999999999999 Q 3.8234736328125 0.8594999999999999 3.8234736328125 0.9584999999999999 Q 3.8234736328125 0.9704999999999999 3.8182236328125 0.9757499999999999 Q 3.8129736328125 0.9809999999999999 3.8009736328125 0.9809999999999999 L 3.0929736328125 0.9809999999999999 Q 3.0899736328125 0.9809999999999999 3.0899736328125 0.9719999999999999 Q 3.0899736328125 0.9629999999999999 3.0929736328125 0.9629999999999999 Q 3.1409736328125 0.9629999999999999 3.1627236328125 0.9554999999999999 Q 3.1844736328125 0.9479999999999998 3.1927236328125 0.9262499999999999 Q 3.2009736328125 0.9044999999999999 3.2009736328125 0.8594999999999999 L 3.2009736328125 0.1649999999999998 Q 3.2009736328125 0.11999999999999988 3.1927236328125 0.09899999999999987 Q 3.1844736328125 0.07799999999999985 3.1619736328125 0.06974999999999987 Q 3.1394736328125 0.06149999999999989 3.0929736328125 0.06149999999999989 Q 3.0899736328125 0.06149999999999989 3.0899736328125 0.05249999999999988 Q 3.0899736328125 0.04349999999999987 3.0929736328125 0.04349999999999987 L 3.1694736328125 0.04499999999999982 Q 3.2384736328125 0.04799999999999982 3.2834736328125 0.04799999999999982 Q 3.3284736328125 0.04799999999999982 3.3974736328125 0.04499999999999982 L 3.4739736328125 0.04349999999999987 Q 3.4784736328125 0.04349999999999987 3.4784736328125 0.05249999999999988 Q 3.4784736328125 0.06149999999999989 3.4739736328125 0.06149999999999989 Q 3.4274736328125 0.06149999999999989 3.4049736328125 0.06974999999999987 Q 3.3824736328125002 0.07799999999999985 3.3749736328125 0.0997499999999999 Q 3.3674736328125 0.12149999999999983 3.3674736328125 0.16649999999999987 L 3.3674736328125 0.8534999999999999 M 3.9074326171875 0.3104999999999999 Q 3.9059326171875 0.31499999999999984 3.8984326171875 0.3142499999999998 Q 3.8909326171875 0.3134999999999999 3.8909326171875 0.30899999999999983 Q 3.8969326171875 0.2489999999999999 3.9044326171875 0.15374999999999983 Q 3.9119326171875 0.058499999999999885 3.9119326171875 0.010499999999999843 Q 3.9119326171875 0.0029999999999998916 3.9201826171875 0.0029999999999998916 Q 3.9284326171875 0.0029999999999998916 3.9284326171875 0.010499999999999843 Q 3.9284326171875 0.04349999999999987 4.0139326171875 0.04349999999999987 Q 4.1429326171875 0.04799999999999982 4.3154326171875 0.04799999999999982 Q 4.4039326171875 0.04799999999999982 4.5029326171875 0.04499999999999982 L 4.6049326171875 0.04349999999999987 Q 4.6619326171875 0.04349999999999987 4.6881826171875005 0.03599999999999981 Q 4.7144326171875 0.02849999999999986 4.7219326171875 0.005999999999999894 Q 4.7234326171875 -1.1102230246251565e-16 4.7316826171875 -1.1102230246251565e-16 Q 4.7399326171875 -1.1102230246251565e-16 4.7399326171875 0.005999999999999894 Q 4.7354326171875 0.05099999999999982 4.7301826171875 0.1499999999999998 Q 4.7249326171875 0.2489999999999999 4.7249326171875 0.30899999999999983 Q 4.7249326171875 0.3134999999999999 4.7174326171875 0.3134999999999999 Q 4.7099326171875 0.3134999999999999 4.7084326171875 0.30899999999999983 Q 4.6859326171875 0.1934999999999999 4.6244326171875 0.13574999999999982 Q 4.5629326171875 0.07799999999999985 4.4729326171875 0.07799999999999985 Q 4.4294326171875 0.07799999999999985 4.4151826171875 0.09674999999999989 Q 4.4009326171875 0.11549999999999983 4.4009326171875 0.16799999999999982 L 4.4009326171875 0.8594999999999999 Q 4.4009326171875 0.9059999999999999 4.4099326171875 0.9269999999999998 Q 4.4189326171875 0.9479999999999998 4.4444326171875 0.9554999999999999 Q 4.4699326171875 0.9629999999999999 4.5254326171875 0.9629999999999999 Q 4.5299326171875 0.9629999999999999 4.5299326171875 0.9719999999999999 Q 4.5299326171875 0.9809999999999999 4.5254326171875 0.9809999999999999 Q 4.4714326171875 0.9809999999999999 4.4399326171875 0.9794999999999999 L 4.3154326171875 0.9779999999999999 L 4.1939326171874995 0.9794999999999999 Q 4.1624326171875 0.9809999999999999 4.1069326171875 0.9809999999999999 Q 4.1024326171875 0.9809999999999999 4.1024326171875 0.9719999999999999 Q 4.1024326171875 0.9629999999999999 4.1069326171875 0.9629999999999999 Q 4.1609326171875 0.9629999999999999 4.1871826171875 0.9554999999999999 Q 4.2134326171875 0.9479999999999998 4.2231826171875 0.9262499999999999 Q 4.2329326171875 0.9044999999999999 4.2329326171875 0.8594999999999999 L 4.2329326171875 0.1649999999999998 Q 4.2329326171875 0.11399999999999988 4.2194326171875 0.09599999999999986 Q 4.2059326171875 0.07799999999999985 4.1639326171875 0.07799999999999985 Q 3.9854326171875 0.07799999999999985 3.9074326171875 0.3104999999999999 M 5.897940673828125 0.9719999999999999 Q 5.897940673828125 0.9809999999999999 5.893440673828125 0.9809999999999999 Q 5.8409406738281255 0.9809999999999999 5.809440673828125 0.9794999999999999 L 5.693940673828125 0.9779999999999999 L 5.5589406738281255 0.9794999999999999 Q 5.531940673828125 0.9809999999999999 5.485440673828125 0.9809999999999999 Q 5.480940673828125 0.9809999999999999 5.480940673828125 0.9719999999999999 Q 5.480940673828125 0.9629999999999999 5.485440673828125 0.9629999999999999 Q 5.540940673828125 0.9629999999999999 5.566440673828125 0.9554999999999999 Q 5.591940673828125 0.9479999999999998 5.600940673828125 0.9269999999999998 Q 5.609940673828125 0.9059999999999999 5.609940673828125 0.8594999999999999 L 5.609940673828125 0.5144999999999998 L 5.125440673828125 0.5144999999999998 L 5.125440673828125 0.8594999999999999 Q 5.125440673828125 0.9044999999999999 5.134440673828125 0.9262499999999999 Q 5.143440673828125 0.9479999999999998 5.168940673828125 0.9554999999999999 Q 5.194440673828125 0.9629999999999999 5.249940673828125 0.9629999999999999 Q 5.252940673828125 0.9629999999999999 5.252940673828125 0.9719999999999999 Q 5.252940673828125 0.9809999999999999 5.249940673828125 0.9809999999999999 Q 5.197440673828125 0.9809999999999999 5.165940673828125 0.9794999999999999 L 5.035440673828125 0.9779999999999999 L 4.922940673828125 0.9794999999999999 Q 4.892940673828125 0.9809999999999999 4.840440673828125 0.9809999999999999 Q 4.837440673828125 0.9809999999999999 4.837440673828125 0.9719999999999999 Q 4.837440673828125 0.9629999999999999 4.840440673828125 0.9629999999999999 Q 4.892940673828125 0.9629999999999999 4.916940673828125 0.9554999999999999 Q 4.940940673828125 0.9479999999999998 4.949940673828125 0.9262499999999999 Q 4.958940673828125 0.9044999999999999 4.958940673828125 0.8594999999999999 L 4.958940673828125 0.1649999999999998 Q 4.958940673828125 0.11999999999999988 4.949940673828125 0.09899999999999987 Q 4.940940673828125 0.07799999999999985 4.917690673828125 0.06974999999999987 Q 4.894440673828125 0.06149999999999989 4.843440673828125 0.06149999999999989 Q 4.838940673828125 0.06149999999999989 4.838940673828125 0.05249999999999988 Q 4.838940673828125 0.04349999999999987 4.843440673828125 0.04349999999999987 L 4.924440673828125 0.04499999999999982 Q 4.993440673828125 0.04799999999999982 5.035440673828125 0.04799999999999982 Q 5.092440673828125 0.04799999999999982 5.167440673828125 0.04499999999999982 L 5.249940673828125 0.04349999999999987 Q 5.252940673828125 0.04349999999999987 5.252940673828125 0.05249999999999988 Q 5.252940673828125 0.06149999999999989 5.249940673828125 0.06149999999999989 Q 5.195940673828125 0.06149999999999989 5.170440673828125 0.0704999999999999 Q 5.144940673828125 0.0794999999999999 5.135190673828125 0.10124999999999984 Q 5.125440673828125 0.12299999999999989 5.125440673828125 0.16799999999999982 L 5.125440673828125 0.4724999999999998 L 5.609940673828125 0.4724999999999998 L 5.609940673828125 0.16799999999999982 Q 5.609940673828125 0.12299999999999989 5.600940673828125 0.10124999999999984 Q 5.591940673828125 0.0794999999999999 5.566440673828125 0.0704999999999999 Q 5.540940673828125 0.06149999999999989 5.485440673828125 0.06149999999999989 Q 5.480940673828125 0.06149999999999989 5.480940673828125 0.05249999999999988 Q 5.480940673828125 0.04349999999999987 5.485440673828125 0.04349999999999987 L 5.5589406738281255 0.04499999999999982 Q 5.633940673828125 0.04799999999999982 5.693940673828125 0.04799999999999982 Q 5.734440673828125 0.04799999999999982 5.809440673828125 0.04499999999999982 L 5.893440673828125 0.04349999999999987 Q 5.897940673828125 0.04349999999999987 5.897940673828125 0.05249999999999988 Q 5.897940673828125 0.06149999999999989 5.893440673828125 0.06149999999999989 Q 5.842440673828125 0.06149999999999989 5.817690673828125 0.06974999999999987 Q 5.7929406738281255 0.07799999999999985 5.784690673828125 0.09899999999999987 Q 5.776440673828125 0.11999999999999988 5.776440673828125 0.1649999999999998 L 5.776440673828125 0.8594999999999999 Q 5.776440673828125 0.9044999999999999 5.784690673828125 0.9262499999999999 Q 5.7929406738281255 0.9479999999999998 5.816940673828125 0.9554999999999999 Q 5.8409406738281255 0.9629999999999999 5.893440673828125 0.9629999999999999 Q 5.897940673828125 0.9629999999999999 5.897940673828125 0.9719999999999999 M 6.71090625 0.038249999999999895 Q 6.78290625 0.04949999999999988 6.82340625 0.0674999999999999 Q 6.83690625 0.07199999999999984 6.84065625 0.07874999999999988 Q 6.8444062500000005 0.0854999999999998 6.84740625 0.10199999999999987 L 6.86540625 0.3104999999999999 Q 6.86540625 0.31499999999999984 6.85790625 0.3164999999999999 Q 6.85040625 0.31799999999999984 6.84890625 0.31199999999999983 Q 6.7979062500000005 0.1934999999999999 6.71240625 0.1289999999999999 Q 6.62690625 0.06449999999999989 6.51440625 0.06449999999999989 Q 6.36590625 0.06449999999999989 6.28490625 0.17399999999999982 Q 6.20390625 0.28349999999999986 6.20390625 0.46799999999999986 Q 6.20390625 0.6059999999999999 6.24815625 0.7199999999999999 Q 6.29240625 0.8339999999999999 6.37265625 0.9007499999999998 Q 6.45290625 0.9674999999999999 6.55490625 0.9674999999999999 Q 6.65090625 0.9674999999999999 6.72665625 0.9037499999999998 Q 6.80240625 0.8399999999999999 6.86240625 0.7094999999999998 Q 6.86390625 0.7034999999999998 6.87215625 0.7049999999999998 Q 6.88040625 0.7064999999999999 6.88040625 0.7109999999999999 L 6.85790625 0.9149999999999998 Q 6.85490625 0.9329999999999998 6.85115625 0.9382499999999999 Q 6.84740625 0.9434999999999999 6.83390625 0.9494999999999999 Q 6.70040625 0.9989999999999999 6.55940625 0.9989999999999999 Q 6.37640625 0.9989999999999999 6.25340625 0.9262499999999999 Q 6.13040625 0.8534999999999999 6.07265625 0.7417499999999999 Q 6.01490625 0.6299999999999999 6.01490625 0.5084999999999998 Q 6.01490625 0.3659999999999999 6.09215625 0.25649999999999984 Q 6.16940625 0.1469999999999999 6.29765625 0.08699999999999986 Q 6.42590625 0.026999999999999802 6.57290625 0.026999999999999802 Q 6.63890625 0.026999999999999802 6.71090625 0.038249999999999895 M 8.047415771484374 0.9719999999999999 Q 8.047415771484374 0.9809999999999999 8.042915771484376 0.9809999999999999 Q 7.9904157714843755 0.9809999999999999 7.958915771484375 0.9794999999999999 L 7.843415771484375 0.9779999999999999 L 7.7084157714843755 0.9794999999999999 Q 7.681415771484375 0.9809999999999999 7.634915771484375 0.9809999999999999 Q 7.630415771484375 0.9809999999999999 7.630415771484375 0.9719999999999999 Q 7.630415771484375 0.9629999999999999 7.634915771484375 0.9629999999999999 Q 7.690415771484375 0.9629999999999999 7.715915771484375 0.9554999999999999 Q 7.741415771484375 0.9479999999999998 7.750415771484375 0.9269999999999998 Q 7.759415771484375 0.9059999999999999 7.759415771484375 0.8594999999999999 L 7.759415771484375 0.5144999999999998 L 7.274915771484375 0.5144999999999998 L 7.274915771484375 0.8594999999999999 Q 7.274915771484375 0.9044999999999999 7.283915771484375 0.9262499999999999 Q 7.292915771484375 0.9479999999999998 7.318415771484375 0.9554999999999999 Q 7.343915771484375 0.9629999999999999 7.399415771484375 0.9629999999999999 Q 7.402415771484375 0.9629999999999999 7.402415771484375 0.9719999999999999 Q 7.402415771484375 0.9809999999999999 7.399415771484375 0.9809999999999999 Q 7.346915771484375 0.9809999999999999 7.315415771484375 0.9794999999999999 L 7.184915771484375 0.9779999999999999 L 7.072415771484375 0.9794999999999999 Q 7.042415771484375 0.9809999999999999 6.989915771484375 0.9809999999999999 Q 6.986915771484375 0.9809999999999999 6.986915771484375 0.9719999999999999 Q 6.986915771484375 0.9629999999999999 6.989915771484375 0.9629999999999999 Q 7.042415771484375 0.9629999999999999 7.066415771484375 0.9554999999999999 Q 7.090415771484375 0.9479999999999998 7.099415771484375 0.9262499999999999 Q 7.108415771484375 0.9044999999999999 7.108415771484375 0.8594999999999999 L 7.108415771484375 0.1649999999999998 Q 7.108415771484375 0.11999999999999988 7.099415771484375 0.09899999999999987 Q 7.090415771484375 0.07799999999999985 7.067165771484375 0.06974999999999987 Q 7.043915771484375 0.06149999999999989 6.992915771484375 0.06149999999999989 Q 6.988415771484375 0.06149999999999989 6.988415771484375 0.05249999999999988 Q 6.988415771484375 0.04349999999999987 6.992915771484375 0.04349999999999987 L 7.073915771484375 0.04499999999999982 Q 7.142915771484375 0.04799999999999982 7.184915771484375 0.04799999999999982 Q 7.241915771484375 0.04799999999999982 7.316915771484375 0.04499999999999982 L 7.399415771484375 0.04349999999999987 Q 7.402415771484375 0.04349999999999987 7.402415771484375 0.05249999999999988 Q 7.402415771484375 0.06149999999999989 7.399415771484375 0.06149999999999989 Q 7.345415771484375 0.06149999999999989 7.319915771484375 0.0704999999999999 Q 7.294415771484375 0.0794999999999999 7.284665771484375 0.10124999999999984 Q 7.274915771484375 0.12299999999999989 7.274915771484375 0.16799999999999982 L 7.274915771484375 0.4724999999999998 L 7.759415771484375 0.4724999999999998 L 7.759415771484375 0.16799999999999982 Q 7.759415771484375 0.12299999999999989 7.750415771484375 0.10124999999999984 Q 7.741415771484375 0.0794999999999999 7.715915771484375 0.0704999999999999 Q 7.690415771484375 0.06149999999999989 7.634915771484375 0.06149999999999989 Q 7.630415771484375 0.06149999999999989 7.630415771484375 0.05249999999999988 Q 7.630415771484375 0.04349999999999987 7.634915771484375 0.04349999999999987 L 7.7084157714843755 0.04499999999999982 Q 7.783415771484375 0.04799999999999982 7.843415771484375 0.04799999999999982 Q 7.883915771484375 0.04799999999999982 7.958915771484375 0.04499999999999982 L 8.042915771484376 0.04349999999999987 Q 8.047415771484374 0.04349999999999987 8.047415771484374 0.05249999999999988 Q 8.047415771484374 0.06149999999999989 8.042915771484376 0.06149999999999989 Q 7.991915771484375 0.06149999999999989 7.967165771484375 0.06974999999999987 Q 7.9424157714843755 0.07799999999999985 7.934165771484375 0.09899999999999987 Q 7.925915771484375 0.11999999999999988 7.925915771484375 0.1649999999999998 L 7.925915771484375 0.8594999999999999 Q 7.925915771484375 0.9044999999999999 7.934165771484375 0.9262499999999999 Q 7.9424157714843755 0.9479999999999998 7.966415771484375 0.9554999999999999 Q 7.9904157714843755 0.9629999999999999 8.042915771484376 0.9629999999999999 Q 8.047415771484374 0.9629999999999999 8.047415771484374 0.9719999999999999 M 8.84088134765625 0.7394999999999998 Q 8.84538134765625 0.7394999999999998 8.84913134765625 0.7417499999999999 Q 8.85288134765625 0.7439999999999999 8.85288134765625 0.7454999999999998 Q 8.83788134765625 0.8624999999999998 8.83788134765625 0.9584999999999999 Q 8.83788134765625 0.9704999999999999 8.83338134765625 0.9757499999999999 Q 8.82888134765625 0.9809999999999999 8.81538134765625 0.9809999999999999 L 8.15238134765625 0.9809999999999999 Q 8.14788134765625 0.9809999999999999 8.14788134765625 0.9719999999999999 Q 8.14788134765625 0.9629999999999999 8.15238134765625 0.9629999999999999 Q 8.20038134765625 0.9629999999999999 8.22213134765625 0.9554999999999999 Q 8.24388134765625 0.9479999999999998 8.25138134765625 0.9262499999999999 Q 8.25888134765625 0.9044999999999999 8.25888134765625 0.8594999999999999 L 8.25888134765625 0.1649999999999998 Q 8.25888134765625 0.11999999999999988 8.25138134765625 0.09899999999999987 Q 8.24388134765625 0.07799999999999985 8.22138134765625 0.06974999999999987 Q 8.19888134765625 0.06149999999999989 8.15238134765625 0.06149999999999989 Q 8.14788134765625 0.06149999999999989 8.14788134765625 0.05249999999999988 Q 8.14788134765625 0.04349999999999987 8.15238134765625 0.04349999999999987 L 8.78838134765625 0.04349999999999987 Q 8.80338134765625 0.04349999999999987 8.80338134765625 0.05699999999999983 L 8.80638134765625 0.25649999999999984 Q 8.80638134765625 0.25949999999999984 8.79813134765625 0.2609999999999999 Q 8.78988134765625 0.26249999999999984 8.78838134765625 0.2579999999999999 Q 8.76438134765625 0.17099999999999982 8.70738134765625 0.1289999999999999 Q 8.65038134765625 0.08699999999999986 8.55738134765625 0.08699999999999986 L 8.51238134765625 0.08699999999999986 Q 8.46738134765625 0.08699999999999986 8.44638134765625 0.10649999999999982 Q 8.42538134765625 0.1259999999999999 8.42538134765625 0.16649999999999987 L 8.42538134765625 0.4724999999999998 L 8.54988134765625 0.4724999999999998 Q 8.63688134765625 0.4724999999999998 8.68338134765625 0.4424999999999999 Q 8.72988134765625 0.41249999999999987 8.72988134765625 0.3584999999999998 Q 8.72988134765625 0.35399999999999987 8.73813134765625 0.35399999999999987 Q 8.74638134765625 0.35399999999999987 8.74638134765625 0.3584999999999998 L 8.74488134765625 0.4934999999999999 L 8.74638134765625 0.5654999999999999 Q 8.74938134765625 0.6164999999999998 8.74938134765625 0.6464999999999999 Q 8.74938134765625 0.6494999999999999 8.74038134765625 0.6494999999999999 Q 8.73138134765625 0.6494999999999999 8.73138134765625 0.6464999999999999 Q 8.73138134765625 0.5849999999999999 8.68413134765625 0.5497499999999998 Q 8.63688134765625 0.5144999999999998 8.54838134765625 0.5144999999999998 L 8.42538134765625 0.5144999999999998 L 8.42538134765625 0.8534999999999999 Q 8.42538134765625 0.8969999999999999 8.44188134765625 0.9179999999999999 Q 8.45838134765625 0.9389999999999998 8.49438134765625 0.9389999999999998 L 8.54388134765625 0.9389999999999998 Q 8.66088134765625 0.9389999999999998 8.73138134765625 0.8909999999999999 Q 8.80188134765625 0.8429999999999999 8.83488134765625 0.7424999999999998 Q 8.83488134765625 0.7394999999999998 8.84088134765625 0.7394999999999998 M 9.68838427734375 0.038249999999999895 Q 9.76038427734375 0.04949999999999988 9.80088427734375 0.0674999999999999 Q 9.81438427734375 0.07199999999999984 9.81813427734375 0.07874999999999988 Q 9.82188427734375 0.0854999999999998 9.82488427734375 0.10199999999999987 L 9.84288427734375 0.3104999999999999 Q 9.84288427734375 0.31499999999999984 9.83538427734375 0.3164999999999999 Q 9.82788427734375 0.31799999999999984 9.82638427734375 0.31199999999999983 Q 9.77538427734375 0.1934999999999999 9.68988427734375 0.1289999999999999 Q 9.60438427734375 0.06449999999999989 9.49188427734375 0.06449999999999989 Q 9.34338427734375 0.06449999999999989 9.26238427734375 0.17399999999999982 Q 9.18138427734375 0.28349999999999986 9.18138427734375 0.46799999999999986 Q 9.18138427734375 0.6059999999999999 9.22563427734375 0.7199999999999999 Q 9.26988427734375 0.8339999999999999 9.35013427734375 0.9007499999999998 Q 9.43038427734375 0.9674999999999999 9.53238427734375 0.9674999999999999 Q 9.62838427734375 0.9674999999999999 9.70413427734375 0.9037499999999998 Q 9.77988427734375 0.8399999999999999 9.83988427734375 0.7094999999999998 Q 9.84138427734375 0.7034999999999998 9.84963427734375 0.7049999999999998 Q 9.85788427734375 0.7064999999999999 9.85788427734375 0.7109999999999999 L 9.83538427734375 0.9149999999999998 Q 9.832384277343749 0.9329999999999998 9.82863427734375 0.9382499999999999 Q 9.82488427734375 0.9434999999999999 9.81138427734375 0.9494999999999999 Q 9.67788427734375 0.9989999999999999 9.53688427734375 0.9989999999999999 Q 9.35388427734375 0.9989999999999999 9.23088427734375 0.9262499999999999 Q 9.10788427734375 0.8534999999999999 9.05013427734375 0.7417499999999999 Q 8.99238427734375 0.6299999999999999 8.99238427734375 0.5084999999999998 Q 8.99238427734375 0.3659999999999999 9.06963427734375 0.25649999999999984 Q 9.14688427734375 0.1469999999999999 9.27513427734375 0.08699999999999986 Q 9.40338427734375 0.026999999999999802 9.55038427734375 0.026999999999999802 Q 9.61638427734375 0.026999999999999802 9.68838427734375 0.038249999999999895 M 10.922893798828126 0.9719999999999999 Q 10.922893798828126 0.9809999999999999 10.918393798828125 0.9809999999999999 L 10.750393798828124 0.9809999999999999 Q 10.726393798828125 0.9809999999999999 10.709893798828125 0.9824999999999998 Q 10.693393798828126 0.9839999999999999 10.682893798828125 0.9839999999999999 Q 10.658893798828124 0.9839999999999999 10.641643798828126 0.9727499999999999 Q 10.624393798828125 0.9614999999999999 10.599643798828126 0.9314999999999999 Q 10.574893798828125 0.9014999999999999 10.511893798828124 0.8159999999999998 Q 10.504393798828126 0.8054999999999999 10.494643798828125 0.7927499999999998 Q 10.484893798828125 0.7799999999999998 10.472893798828125 0.7634999999999998 L 10.276393798828124 0.4994999999999999 L 10.243393798828125 0.5324999999999999 L 10.243393798828125 0.8594999999999999 Q 10.243393798828125 0.9059999999999999 10.250893798828125 0.9269999999999998 Q 10.258393798828125 0.9479999999999998 10.280143798828124 0.9554999999999999 Q 10.301893798828125 0.9629999999999999 10.349893798828125 0.9629999999999999 Q 10.355893798828125 0.9629999999999999 10.355893798828125 0.9719999999999999 Q 10.355893798828125 0.9809999999999999 10.349893798828125 0.9809999999999999 Q 10.300393798828125 0.9809999999999999 10.271893798828126 0.9794999999999999 L 10.159393798828125 0.9779999999999999 L 10.048393798828124 0.9794999999999999 Q 10.018393798828125 0.9809999999999999 9.967393798828125 0.9809999999999999 Q 9.964393798828125 0.9809999999999999 9.964393798828125 0.9719999999999999 Q 9.964393798828125 0.9629999999999999 9.967393798828125 0.9629999999999999 Q 10.015393798828125 0.9629999999999999 10.037893798828126 0.9554999999999999 Q 10.060393798828125 0.9479999999999998 10.068643798828125 0.9262499999999999 Q 10.076893798828126 0.9044999999999999 10.076893798828126 0.8594999999999999 L 10.076893798828126 0.1649999999999998 Q 10.076893798828126 0.11999999999999988 10.068643798828125 0.09899999999999987 Q 10.060393798828125 0.07799999999999985 10.038643798828126 0.06974999999999987 Q 10.016893798828125 0.06149999999999989 9.970393798828125 0.06149999999999989 Q 9.965893798828125 0.06149999999999989 9.965893798828125 0.05249999999999988 Q 9.965893798828125 0.04349999999999987 9.970393798828125 0.04349999999999987 L 10.049893798828125 0.04499999999999982 Q 10.118893798828125 0.04799999999999982 10.159393798828125 0.04799999999999982 Q 10.204393798828125 0.04799999999999982 10.273393798828126 0.04499999999999982 L 10.349893798828125 0.04349999999999987 Q 10.354393798828125 0.04349999999999987 10.354393798828125 0.05249999999999988 Q 10.354393798828125 0.06149999999999989 10.349893798828125 0.06149999999999989 Q 10.303393798828125 0.06149999999999989 10.281643798828124 0.0704999999999999 Q 10.259893798828125 0.0794999999999999 10.251643798828125 0.10124999999999984 Q 10.243393798828125 0.12299999999999989 10.243393798828125 0.16799999999999982 L 10.243393798828125 0.4859999999999999 L 10.525393798828125 0.19799999999999984 Q 10.568893798828125 0.15449999999999986 10.568893798828125 0.11849999999999983 Q 10.568893798828125 0.0914999999999998 10.544893798828125 0.0764999999999999 Q 10.520893798828125 0.06149999999999989 10.477393798828125 0.06149999999999989 Q 10.472893798828125 0.06149999999999989 10.472893798828125 0.05249999999999988 Q 10.472893798828125 0.04349999999999987 10.477393798828125 0.04349999999999987 L 10.547893798828126 0.04499999999999982 Q 10.613893798828125 0.04799999999999982 10.670893798828125 0.04799999999999982 Q 10.732393798828125 0.04799999999999982 10.798393798828124 0.04499999999999982 L 10.865893798828125 0.04349999999999987 Q 10.870393798828125 0.04349999999999987 10.870393798828125 0.05249999999999988 Q 10.870393798828125 0.06149999999999989 10.865893798828125 0.06149999999999989 Q 10.796893798828124 0.06149999999999989 10.714393798828125 0.10124999999999984 Q 10.631893798828125 0.1409999999999999 10.564393798828124 0.20699999999999985 L 10.394893798828125 0.37949999999999984 L 10.616893798828125 0.6794999999999999 Q 10.714393798828125 0.8189999999999998 10.763143798828125 0.8767499999999999 Q 10.811893798828125 0.9344999999999999 10.841893798828124 0.9487499999999999 Q 10.871893798828125 0.9629999999999999 10.918393798828125 0.9629999999999999 Q 10.922893798828126 0.9629999999999999 10.922893798828126 0.9719999999999999" fill="#000000" fill-rule="nonzero"></path></g><g><path d=" M 4.8753447875976565 1.7868749999999998 Q 4.881719787597656 1.7977499999999997 4.900094787597657 1.8022499999999997 Q 4.918469787597656 1.8067499999999999 4.958219787597656 1.8067499999999999 Q 4.960469787597656 1.8067499999999999 4.960469787597656 1.8112499999999998 Q 4.960469787597656 1.8157499999999998 4.958219787597656 1.8157499999999998 Q 4.927469787597656 1.8157499999999998 4.910219787597656 1.8149999999999997 L 4.844969787597656 1.8142499999999997 L 4.794719787597656 1.8149999999999997 Q 4.7804697875976565 1.8157499999999998 4.7564697875976565 1.8157499999999998 Q 4.754969787597656 1.8157499999999998 4.754969787597656 1.8112499999999998 Q 4.754969787597656 1.8067499999999999 4.7564697875976565 1.8067499999999999 Q 4.784969787597656 1.8067499999999999 4.798094787597656 1.8029999999999997 Q 4.811219787597656 1.7992499999999998 4.815719787597656 1.7883749999999998 Q 4.820219787597656 1.7774999999999999 4.820219787597656 1.7549999999999997 L 4.820219787597656 1.4077499999999996 Q 4.820219787597656 1.3852499999999996 4.815719787597656 1.3747499999999997 Q 4.811219787597656 1.3642499999999997 4.798094787597656 1.3601249999999998 Q 4.784969787597656 1.3559999999999999 4.7564697875976565 1.3559999999999999 Q 4.754969787597656 1.3559999999999999 4.754969787597656 1.3514999999999997 Q 4.754969787597656 1.3469999999999998 4.7564697875976565 1.3469999999999998 L 4.793969787597656 1.3477499999999998 Q 4.825469787597656 1.3492499999999996 4.844219787597656 1.3492499999999996 Q 4.862969787597656 1.3492499999999996 4.886219787597656 1.3469999999999998 Q 4.895219787597656 1.3469999999999998 4.914719787597656 1.3458749999999997 Q 4.934219787597656 1.3447499999999997 4.948469787597656 1.3447499999999997 Q 5.017469787597657 1.3447499999999997 5.059094787597656 1.3754999999999997 Q 5.100719787597656 1.4062499999999998 5.100719787597656 1.4692499999999997 Q 5.100719787597656 1.5187499999999998 5.076344787597656 1.5524999999999998 Q 5.051969787597656 1.5862499999999997 5.0137197875976565 1.6027499999999997 Q 4.975469787597656 1.6192499999999996 4.934969787597656 1.6192499999999996 Q 4.913219787597656 1.6192499999999996 4.8989697875976566 1.6154999999999997 Q 4.8967197875976565 1.6154999999999997 4.8967197875976565 1.6117499999999998 Q 4.8967197875976565 1.6094999999999997 4.8978447875976565 1.6072499999999998 Q 4.8989697875976566 1.6049999999999998 4.900469787597657 1.6057499999999998 Q 4.912469787597656 1.6087499999999997 4.927469787597656 1.6087499999999997 Q 4.976969787597656 1.6087499999999997 5.011094787597656 1.5764999999999998 Q 5.045219787597656 1.5442499999999997 5.045219787597656 1.4834999999999998 Q 5.045219787597656 1.4242499999999998 5.012969787597656 1.3901249999999998 Q 4.980719787597656 1.3559999999999999 4.930469787597656 1.3559999999999999 Q 4.903469787597656 1.3559999999999999 4.891469787597656 1.3589999999999998 Q 4.879469787597656 1.3619999999999997 4.8742197875976565 1.3728749999999996 Q 4.868969787597656 1.3837499999999998 4.868969787597656 1.4092499999999997 L 4.868969787597656 1.7519999999999998 Q 4.868969787597656 1.7759999999999998 4.8753447875976565 1.7868749999999998 M 5.647867126464844 1.8112499999999998 Q 5.647867126464844 1.8157499999999998 5.646367126464844 1.8157499999999998 L 5.5496171264648435 1.8157499999999998 Q 5.530867126464844 1.8157499999999998 5.4794921264648435 1.7516249999999998 Q 5.428117126464843 1.6874999999999998 5.354617126464844 1.5727499999999996 Q 5.336617126464843 1.5779999999999998 5.3141171264648435 1.5779999999999998 Q 5.299867126464844 1.5779999999999998 5.280367126464844 1.5764999999999998 L 5.280367126464844 1.7549999999999997 Q 5.280367126464844 1.7782499999999997 5.284867126464844 1.7887499999999998 Q 5.289367126464843 1.7992499999999998 5.302492126464844 1.8029999999999997 Q 5.3156171264648435 1.8067499999999999 5.344117126464844 1.8067499999999999 Q 5.346367126464844 1.8067499999999999 5.346367126464844 1.8112499999999998 Q 5.346367126464844 1.8157499999999998 5.344117126464844 1.8157499999999998 Q 5.320867126464844 1.8157499999999998 5.307367126464844 1.8149999999999997 L 5.255617126464844 1.8142499999999997 L 5.204617126464844 1.8149999999999997 Q 5.191117126464844 1.8157499999999998 5.166367126464844 1.8157499999999998 Q 5.164867126464844 1.8157499999999998 5.164867126464844 1.8112499999999998 Q 5.164867126464844 1.8067499999999999 5.166367126464844 1.8067499999999999 Q 5.194867126464843 1.8067499999999999 5.208367126464844 1.8026249999999997 Q 5.2218671264648435 1.7984999999999998 5.227117126464844 1.7879999999999998 Q 5.232367126464844 1.7774999999999999 5.232367126464844 1.7549999999999997 L 5.232367126464844 1.4077499999999996 Q 5.232367126464844 1.3852499999999996 5.227492126464844 1.3747499999999997 Q 5.2226171264648436 1.3642499999999997 5.209492126464844 1.3601249999999998 Q 5.1963671264648434 1.3559999999999999 5.167867126464844 1.3559999999999999 Q 5.165617126464844 1.3559999999999999 5.165617126464844 1.3514999999999997 Q 5.165617126464844 1.3469999999999998 5.167867126464844 1.3469999999999998 L 5.204617126464844 1.3477499999999998 Q 5.236117126464844 1.3492499999999996 5.255617126464844 1.3492499999999996 Q 5.2691171264648435 1.3492499999999996 5.281117126464844 1.3484999999999998 Q 5.293117126464844 1.3477499999999998 5.302117126464844 1.3469999999999998 Q 5.326117126464844 1.3447499999999997 5.345617126464844 1.3447499999999997 Q 5.406367126464843 1.3447499999999997 5.439367126464844 1.3694999999999997 Q 5.472367126464844 1.3942499999999998 5.472367126464844 1.4384999999999997 Q 5.472367126464844 1.4744999999999997 5.451367126464843 1.5063749999999998 Q 5.430367126464843 1.5382499999999997 5.395867126464844 1.5569999999999997 Q 5.459617126464844 1.6522499999999998 5.5031171264648435 1.7058749999999998 Q 5.546617126464843 1.7594999999999998 5.580367126464844 1.7831249999999998 Q 5.614117126464844 1.8067499999999999 5.646367126464844 1.8067499999999999 Q 5.647867126464844 1.8067499999999999 5.647867126464844 1.8112499999999998 M 5.324617126464844 1.5607499999999996 Q 5.376367126464844 1.5607499999999996 5.398867126464844 1.5386249999999997 Q 5.421367126464844 1.5164999999999997 5.421367126464844 1.4647499999999998 Q 5.421367126464844 1.3559999999999999 5.329867126464844 1.3559999999999999 Q 5.309617126464844 1.3559999999999999 5.299492126464844 1.3593749999999998 Q 5.289367126464843 1.3627499999999997 5.284867126464844 1.3736249999999997 Q 5.280367126464844 1.3844999999999996 5.280367126464844 1.4092499999999997 L 5.280367126464844 1.5577499999999997 Q 5.299117126464844 1.5607499999999996 5.324617126464844 1.5607499999999996 M 5.755849548339844 1.7921249999999997 Q 5.701474548339844 1.7594999999999998 5.671849548339844 1.7036249999999997 Q 5.642224548339843 1.6477499999999998 5.642224548339843 1.5817499999999998 Q 5.642224548339843 1.5044999999999997 5.681224548339844 1.4493749999999999 Q 5.720224548339844 1.3942499999999998 5.781349548339843 1.3664999999999998 Q 5.842474548339844 1.3387499999999997 5.906224548339844 1.3387499999999997 Q 5.977474548339844 1.3387499999999997 6.031474548339844 1.3721249999999998 Q 6.085474548339844 1.4054999999999997 6.114349548339844 1.4602499999999998 Q 6.143224548339844 1.5149999999999997 6.143224548339844 1.5764999999999998 Q 6.143224548339844 1.6447499999999997 6.107224548339844 1.7017499999999997 Q 6.071224548339844 1.7587499999999998 6.010849548339844 1.7917499999999997 Q 5.950474548339844 1.8247499999999997 5.879974548339844 1.8247499999999997 Q 5.810224548339844 1.8247499999999997 5.755849548339844 1.7921249999999997 M 5.998099548339844 1.7842499999999997 Q 6.038974548339844 1.7594999999999998 6.062599548339843 1.7114999999999998 Q 6.086224548339844 1.6634999999999998 6.086224548339844 1.5974999999999997 Q 6.086224548339844 1.5269999999999997 6.059974548339844 1.4722499999999998 Q 6.033724548339844 1.4174999999999998 5.986099548339844 1.3867499999999997 Q 5.938474548339844 1.3559999999999999 5.874724548339843 1.3559999999999999 Q 5.792224548339844 1.3559999999999999 5.745724548339844 1.4092499999999997 Q 5.699224548339844 1.4624999999999997 5.699224548339844 1.5554999999999999 Q 5.699224548339844 1.6259999999999997 5.725474548339844 1.6841249999999999 Q 5.751724548339844 1.7422499999999999 5.798974548339844 1.7756249999999998 Q 5.846224548339844 1.8089999999999997 5.906224548339844 1.8089999999999997 Q 5.957224548339844 1.8089999999999997 5.998099548339844 1.7842499999999997" fill="#000000" fill-rule="nonzero"></path></g></g><defs><clipPath id="SvgjsClipPath1001"><path d=" M 1.4568552264118733 -9.69395311311355 h 7.9912272913168785 v 9.44395311311355 h -7.9912272913168785 Z"></path></clipPath><clipPath id="SvgjsClipPath1000969e335e-eda6-42c2-a281-06ce8f2f5b27"><path d=" M 1.4568552264118733 -9.69395311311355 L 9.448082517728752 -9.69395311311355 L 9.448082517728752 -0.25 L 1.4568552264118733 -0.25 Z"></path></clipPath></defs></svg>